<svg width="114" height="120" viewBox="0 0 114 120" fill="none" xmlns="http://www.w3.org/2000/svg">
<mask id="mask0_1963_1705" style="mask-type:luminance" maskUnits="userSpaceOnUse" x="0" y="0" width="114" height="56">
<path d="M0.217773 0H113.783V55.9596H0.217773V0Z" fill="white"/>
</mask>
<g mask="url(#mask0_1963_1705)">
<path d="M0.206055 53.7038V49.5995C0.206055 49.0963 0.423113 48.6168 0.801979 48.2833L55.0133 0.621219C55.6724 0.043055 56.657 0.0351619 57.322 0.605433L113.163 48.2813C113.554 48.6148 113.779 49.1022 113.779 49.6152V52.7251C113.779 53.688 112.999 54.4714 112.035 54.4793L1.98199 55.4581C1.00325 55.466 0.206055 54.6786 0.206055 53.7038Z" fill="#B7C274" fill-opacity="0.7"/>
</g>
<mask id="mask1_1963_1705" style="mask-type:luminance" maskUnits="userSpaceOnUse" x="0" y="3" width="114" height="57">
<path d="M0.229492 3.42383H113.783V59.4959H0.229492V3.42383Z" fill="white"/>
</mask>
<g mask="url(#mask1_1963_1705)">
<path d="M0.287109 57.2737V53.1693C0.287109 52.6661 0.504168 52.1866 0.883033 51.8531L55.0174 4.19104C55.6745 3.61288 56.6572 3.60499 57.3222 4.17526L113.083 51.8511C113.473 52.1846 113.698 52.672 113.698 53.1851V56.2949C113.698 57.2579 112.921 58.0413 111.956 58.0511L2.06107 59.0279C1.08431 59.0358 0.287109 58.2485 0.287109 57.2737Z" fill="#B7C274" fill-opacity="0.7"/>
</g>
<path d="M10.6006 17.6006H103.4V83.2004H10.6006V17.6006Z" fill="#FFF4E9"/>
<mask id="mask2_1963_1705" style="mask-type:luminance" maskUnits="userSpaceOnUse" x="0" y="48" width="114" height="72">
<path d="M0.217773 48.8877H113.783V120H0.217773V48.8877Z" fill="white"/>
</mask>
<g mask="url(#mask2_1963_1705)">
<path d="M113.779 119.96H0.206055V49.282L51.3095 83.0938H63.2418L113.779 49.7931V119.96Z" fill="#B7C274" fill-opacity="0.7"/>
<path d="M0.206055 49.282L51.3095 83.0938L0.206055 119.96V49.282ZM113.779 119.96V49.7931L63.2418 83.0938L113.779 119.96Z" fill="#B7C274"/>
</g>
</svg>
