<svg width="79" height="56" viewBox="0 0 79 56" fill="none" xmlns="http://www.w3.org/2000/svg">
<path d="M43.0433 38.1578C43.0433 17.3078 58.4677 2.8678 78.5297 0.00347137C67.4842 5.78066 60.5195 13.5136 59.5325 20.4629C69.002 19.6968 77.5768 27.0894 78.4518 36.4853C79.3208 45.8118 72.5172 54.4533 63.2168 55.7262C60.2687 56.1296 57.2028 55.7908 54.4265 54.7094C53.0165 54.1663 51.6966 53.4546 50.468 52.5754C49.3946 51.8019 47.9499 50.7776 47.2585 49.6247C44.5313 46.4712 43.0433 42.3148 43.0433 38.1578Z" fill="black"/>
<mask id="mask0_1102_2098" style="mask-type:luminance" maskUnits="userSpaceOnUse" x="0" y="0" width="37" height="56">
<path d="M36.2525 55.9956L0.654148 55.9956L0.654143 0.000239738L36.2525 0.000236511L36.2525 55.9956Z" fill="white"/>
</mask>
<g mask="url(#mask0_1102_2098)">
<path d="M0.653632 38.1578C0.65363 17.3078 16.0748 2.8678 36.1399 0.00347137C25.0945 5.78066 18.1292 13.5136 17.1433 20.4629C26.6123 19.6968 35.1866 27.0894 36.0621 36.4853C36.9301 45.8118 30.127 54.4533 20.8271 55.7262C17.8785 56.1296 14.8131 55.7908 12.0368 54.7094C10.6262 54.1663 9.30688 53.4546 8.07771 52.5754C7.00433 51.8019 5.5607 50.7776 4.86876 49.6247C2.14154 46.4712 0.653632 42.3148 0.653632 38.1578Z" fill="black"/>
</g>
</svg>
