<svg width="80" height="69" viewBox="0 0 80 69" fill="none" xmlns="http://www.w3.org/2000/svg">
<path d="M52.8997 31.3611C52.8201 31.5435 52.7342 31.7228 52.6427 31.9008C51.9613 33.2259 50.9045 34.5599 49.311 35.7922C48.3131 36.5645 47.2243 37.197 46.074 37.6816C48.2178 35.7133 48.2467 32.9276 48.2467 32.9276C48.2467 32.9276 47.7878 35.1084 46.5441 35.0914C45.2992 35.0751 46.0345 33.9731 46.0345 33.9731C49.9504 29.5934 46.4138 26.6303 46.3411 26.5707C47.6712 28.7722 46.6965 31.3893 44.8015 30.948C42.9053 30.5054 43.6857 27.1763 43.7334 23.9875C43.7798 20.7987 41.5802 19.7425 41.5802 19.7425C42.3343 21.03 42.1932 22.4448 41.9205 23.444C41.7112 24.2075 40.7132 24.4181 40.2387 23.7856C39.2552 22.478 39.3849 20.5655 40.2067 18.7063C41.2461 16.3538 40.4462 14.7171 40.4098 14.6462C40.4224 14.7196 40.6499 16.2616 38.1181 18.072C35.5242 19.9262 35.6646 23.0215 36.336 24.4865C37.008 25.9508 36.7071 29.5144 34.0737 28.3309C31.4873 27.1687 33.1083 23.2597 33.1666 23.1218C27.8786 33.2786 32.0546 37.1707 35.4998 38.6431C31.7055 37.9003 23.6091 34.5617 27.4699 19.5632C27.4699 19.5632 27.5514 24.3661 30.238 24.9359C32.9241 25.5057 27.5789 12.1564 33.3848 9.71297C33.3428 9.79132 31.1858 13.7981 33.8744 15.3565C36.5873 16.9311 33.3321 4.88438 40.8737 0C40.8016 0.106564 37.5928 4.8054 40.0613 7.59549C42.5574 10.4182 43.2087 11.4487 44.5113 14.9227C45.8139 18.3967 46.5197 14.8681 46.1392 12.6974C45.7662 10.5573 47.5527 8.41728 47.6041 8.35773C47.5703 8.46993 46.3479 12.5845 49.6138 16.1707C50.3428 16.9718 50.7685 17.9673 50.7315 19.058C50.6976 20.071 50.3309 21.0394 49.9511 21.9647C49.5436 22.9601 49.0672 23.9493 48.8929 25.0193C48.7626 25.8179 48.7425 26.9888 49.4646 27.5329C50.0394 27.9648 50.7898 27.8144 51.3477 27.432C52.0316 26.9644 52.4935 26.2178 52.7292 25.4236C52.9649 24.6288 52.9894 23.7856 52.9273 22.9582C54.0093 25.6142 54.0644 28.7233 52.8997 31.3611Z" fill="black"/>
<mask id="mask0_1224_431" style="mask-type:luminance" maskUnits="userSpaceOnUse" x="0" y="23" width="65" height="46">
<path d="M0.284851 23.9073H64.3133V69H0.284851V23.9073Z" fill="white"/>
</mask>
<g mask="url(#mask0_1224_431)">
<path d="M62.908 67.0982C62.5707 67.6109 62.0103 67.8899 61.4393 67.8899C61.1083 67.8899 60.7736 67.7965 60.4764 67.6015C59.6672 67.0687 59.4421 65.9805 59.9743 65.1706C60.3122 64.6579 60.8726 64.3795 61.443 64.3795C61.7734 64.3795 62.1081 64.4729 62.4046 64.6679C63.2151 65.1995 63.4395 66.2877 62.908 67.0982ZM62.8672 63.742L47.3365 54.5023C47.0024 54.2823 46.6263 54.177 46.2539 54.177C46.1185 54.177 45.9844 54.1908 45.8528 54.2184C45.6327 54.2641 45.4221 54.3481 45.229 54.466L40.9496 51.654L39.4157 50.646L28.9887 43.7933C28.4271 43.4241 27.9526 42.9389 27.5959 42.3691L26.9202 41.2884C26.2425 40.2034 25.9272 38.9415 25.9454 37.6634C25.9611 36.5112 25.4063 35.376 24.3733 34.6972L4.75051 24.0101L6.47058 26.1808L18.3593 33.9951C19.8581 34.9792 20.3063 37.029 19.2927 38.5084C18.6753 39.4092 17.6748 39.8968 16.6537 39.8968C16.0513 39.8968 15.442 39.727 14.9004 39.3715L2.95899 31.5228L0.284241 30.8057L17.8792 44.5787C18.4684 44.9661 19.1329 45.1523 19.7904 45.1523C20.2925 45.1523 20.7896 45.0445 21.2453 44.8351C22.1323 44.4308 23.087 44.2083 24.0511 44.2083C24.3595 44.2083 24.6679 44.2309 24.9757 44.2779L26.1397 44.4534C26.8036 44.5549 27.4373 44.7988 27.9996 45.168L37.8925 51.6696L39.4257 52.6776L44.2988 55.8801C44.1973 56.6117 44.5101 57.3695 45.1682 57.8021L59.8101 68.3926C60.3047 68.7512 60.8751 68.9223 61.4399 68.9223C62.3457 68.9223 63.2352 68.4835 63.7718 67.6667C64.6443 66.3397 64.2331 64.5526 62.8672 63.742Z" fill="black"/>
</g>
<path d="M74.9509 36.9607C74.8751 37.0121 74.7936 37.0585 74.7083 37.0992L65.9356 41.2401C65.3451 41.5191 64.6663 41.3348 64.4005 40.822C64.1347 40.3087 64.3729 39.6492 64.9433 39.3264L73.3813 34.541C74.1893 34.0835 75.1785 34.3079 75.5565 35.0356C75.895 35.6901 75.6185 36.5125 74.9509 36.9607ZM61.6142 36.7475C61.2913 36.2674 61.4543 35.5847 61.984 35.1992L69.8265 29.4918C70.578 28.9458 71.5854 29.0574 72.0442 29.7375C72.4893 30.4014 72.2367 31.3435 71.4926 31.8437C71.4732 31.8575 71.4531 31.8701 71.4337 31.8826L63.1869 36.9889C62.6303 37.3343 61.9364 37.2271 61.6142 36.7475ZM58.893 32.6273C58.5175 32.1872 58.604 31.4914 59.0861 31.0489L66.2328 24.4908C66.303 24.4263 66.3769 24.3686 66.454 24.3178C67.1204 23.8696 67.986 23.9242 68.4637 24.4846C68.9953 25.1095 68.831 26.1094 68.1014 26.6835L60.4827 32.6912C59.9699 33.0962 59.2679 33.068 58.893 32.6273ZM79.1759 33.7368L71.0344 21.6243C70.0076 20.0973 67.9014 19.7625 66.4534 20.8946L57.8819 27.5975C56.0728 29.0129 55.1664 31.2921 55.5106 33.5638L56.3725 39.2505L40.0927 50.1909L41.6272 51.1988L57.3165 40.654L62.2579 43.6008C64.2306 44.7781 66.6835 44.7994 68.6762 43.6585L78.1196 38.2532C79.7168 37.3405 80.202 35.2644 79.1759 33.7368ZM18.8664 67.5908C18.0609 68.1318 16.9709 67.9174 16.4299 67.1138C15.8883 66.3089 16.1027 65.2182 16.9075 64.6779C17.7112 64.1369 18.8025 64.3513 19.3428 65.1549C19.8832 65.9598 19.6701 67.0505 18.8664 67.5908ZM38.7493 53.1327L37.2155 52.1247L33.9791 54.3005C33.3441 53.9237 32.5235 53.9181 31.8703 54.3575L16.4349 63.7558C15.0784 64.5814 14.6854 66.3723 15.5717 67.6899C16.4575 69.0081 18.2634 69.3209 19.5409 68.3763L34.0731 57.6347C34.5257 57.33 34.8115 56.8718 34.9093 56.3753C34.9525 56.1559 34.9557 55.9296 34.9225 55.7046L38.7493 53.1327Z" fill="black"/>
</svg>
