<svg width="89" height="60" viewBox="0 0 89 60" fill="none" xmlns="http://www.w3.org/2000/svg">
<mask id="mask0_1121_2059" style="mask-type:luminance" maskUnits="userSpaceOnUse" x="0" y="0" width="89" height="60">
<path d="M0 0H88.4674V60H0V0Z" fill="white"/>
</mask>
<g mask="url(#mask0_1121_2059)">
<path d="M88.4482 15.7045C88.3606 14.8166 88.0804 14.0234 87.3353 13.4649C86.7257 13.0077 86.193 12.4707 85.6992 11.8954C85.407 11.5558 85.068 11.2444 84.9589 10.7782C84.9265 10.6403 84.8113 10.5551 84.6781 10.4975C84.4825 10.4123 84.3121 10.2845 84.1795 10.1195C83.573 9.36654 82.9712 8.60999 82.3934 7.83365C82.0233 7.33568 81.7107 6.79932 81.3321 6.30915C80.9475 5.81119 80.5534 5.31922 80.1508 4.83626C79.915 4.55368 79.657 4.2891 79.336 4.09771C78.8213 3.79173 78.3083 3.48335 77.817 3.13898C77.6748 3.03938 77.5962 2.92959 77.565 2.764C77.508 2.45502 77.3532 2.19464 77.1288 1.97626C76.6464 1.50649 76.0501 1.29951 75.3943 1.25031C75.0392 1.22391 74.7302 1.13812 74.4488 0.889734C73.9436 0.442765 73.3311 0.186583 72.6795 0.0275942C72.4989 -0.0162029 72.2319 -0.0102031 72.226 0.175784C72.2151 0.503361 72.1138 0.703747 71.821 0.830338C71.7772 0.849537 71.7652 0.938931 71.7358 0.994727C71.7016 1.06012 71.662 1.12312 71.5948 1.16032C71.2924 1.3265 70.996 1.50589 70.6835 1.65168C70.4729 1.75007 70.3049 1.87906 70.2041 2.08425C70.1015 2.29244 69.9383 2.36143 69.7169 2.34943C69.3282 2.32903 68.9424 2.30204 68.559 2.22104C68.0358 2.11125 67.5367 2.28944 67.3237 2.63741C67.0333 3.11198 67.0321 3.11858 66.4921 3.00519C66.0992 2.92299 65.7194 2.95839 65.3432 3.08618C65.213 3.12998 65.108 3.20137 65.1296 3.35496C65.1842 3.74553 65.1602 4.14991 65.3648 4.51588C65.495 4.74926 65.2994 5.01145 65.0325 4.98265C64.7373 4.95085 64.4553 4.86626 64.1841 4.74746C63.7779 4.56988 63.3394 4.49548 62.9218 4.35029C62.5906 4.2351 62.5204 4.3113 62.3068 4.58668C62.0465 4.92205 61.9673 5.08944 61.4711 4.91365C61.2737 4.84346 61.0655 4.80206 60.8591 4.76066C60.7272 4.73427 60.5814 4.70487 60.492 4.85546C60.4026 5.00725 60.4968 5.11644 60.5904 5.21903C60.8795 5.53581 61.2047 5.81659 61.4705 6.15797C61.7417 6.50534 62.0471 6.82572 62.3392 7.1563C62.4226 7.25049 62.461 7.34708 62.4112 7.47247C62.3584 7.60386 62.2432 7.57507 62.1437 7.58827C61.8401 7.62906 61.5359 7.60806 61.2311 7.60086C60.9305 7.59367 60.7716 7.80305 60.5118 7.91104C60.195 8.04303 59.9448 8.10783 59.721 8.39641C59.523 8.65139 59.403 8.95617 59.2759 9.25255C59.0269 9.83091 58.6357 10.1951 58.2457 10.6708C57.8306 11.1754 57.5042 11.7442 57.1556 12.2949C56.6966 13.0203 56.1297 13.6766 55.4841 14.2424C54.6808 14.9462 53.7544 15.5107 52.7579 15.8965C51.666 16.3189 50.5747 16.3447 49.4425 16.5648C47.7831 16.8876 46.0984 17.1156 44.4071 17.1546C42.7764 17.1924 41.0221 17.145 39.4448 16.6992C39.2709 16.6506 39.1791 16.7328 39.1497 16.9242C39.0957 17.2716 39.0333 17.3172 38.6757 17.3448C38.5293 17.3568 38.3817 17.3598 38.2347 17.3562C37.288 17.3322 36.3491 17.2182 35.4083 17.1192C34.4382 17.0172 33.4789 16.7868 32.5831 16.8564C30.9626 16.8 29.0824 17.1894 27.3971 17.7486C26.1882 18.1493 25.1058 18.7841 24.0517 19.4818C22.9076 20.2396 21.7185 20.9067 20.3452 21.1635C20.149 21.2001 19.9564 21.2487 19.7656 21.3135C19.1489 21.5235 18.5351 21.7455 17.9087 21.9237C16.3723 22.3604 14.8256 22.763 13.3833 23.4728C12.9027 23.7097 12.3891 23.8843 11.9542 24.2053C11.5288 24.5185 11.0782 24.7861 10.6109 25.0284C10.3943 25.14 10.1885 25.269 10.0283 25.4538C9.85611 25.6518 9.63893 25.7592 9.40014 25.8558C8.97357 26.0286 8.54521 26.19 8.19123 26.5151C7.10291 27.5165 6.27316 28.8964 5.57241 30.1863C5.28323 30.7184 5.01745 31.2638 4.77687 31.82C4.58188 32.2699 4.2759 32.7151 4.14211 33.1783C4.06292 33.4507 3.98072 33.723 3.91833 33.9996C3.84333 34.329 3.69694 34.6206 3.44856 34.8408C2.78921 35.4245 2.35004 36.1913 1.76868 36.8386C1.72008 36.892 1.69068 36.9628 1.64869 37.0222C1.20712 37.651 0.991733 38.4117 0.484769 39.0021C0.274784 39.2475 0.19019 39.5546 0.0971961 39.8552C0.00240267 40.1624 0.0378003 40.4558 0.19139 40.7389C0.46677 41.2459 0.913139 41.5897 1.36911 41.9011C1.65889 42.0985 2.00266 42.1189 2.34044 41.8807C2.71121 41.6191 3.15698 41.4685 3.58295 41.3521C4.56508 41.0827 5.19564 40.3448 5.81 39.6596C6.59774 38.7807 7.2067 37.744 7.94405 36.8122C8.05264 36.6754 8.17503 36.5284 8.18763 36.3419C8.20323 36.1049 8.34482 35.9633 8.51821 35.8343C9.37975 35.1941 10.1927 34.5006 10.954 33.7404C12.0328 32.6641 13.0161 31.5128 13.6005 30.0957C13.9022 29.3643 14.3786 28.813 14.9258 28.285C15.3943 27.8327 15.8461 27.3617 16.3081 26.9009C16.7664 26.4437 17.19 25.9596 17.718 25.5618C18.2063 25.194 18.7109 24.8581 19.2227 24.5305C19.4158 24.4069 19.6312 24.3157 19.858 24.2581C20.4568 24.1069 20.5156 24.1567 20.3974 24.7555C20.266 25.425 20.17 26.0988 20.0968 26.7773C19.957 28.075 20.3242 29.2857 20.8047 30.4515C21.2289 31.4822 21.9435 32.3365 22.7972 33.0553C23.5274 33.6702 24.2401 34.3128 25.0836 34.7772C25.6392 35.0825 26.1552 35.4845 26.8325 35.4983C26.9315 35.5001 26.9963 35.5847 27.0725 35.6399C27.3029 35.8043 27.5243 35.9873 27.7721 36.1199C28.1692 36.3329 28.492 36.6268 28.7962 36.949C28.9558 37.1176 29.0104 37.3222 29.0248 37.5532C29.0812 38.4471 28.942 39.308 28.6672 40.1594C28.4314 40.8883 28.2058 41.6221 28.0462 42.3744C27.8633 43.239 27.6083 44.0831 27.3125 44.9171C27.0455 45.6688 26.7941 46.4277 26.6891 47.2275C26.5709 48.1268 26.9531 48.7418 27.8213 48.9986C28.0324 49.061 28.2496 49.1114 28.4506 49.1978C29.1112 49.4821 29.8359 49.3783 30.5193 49.5661C31.3346 49.7905 32.1877 49.8715 33.0121 50.0779C33.4081 50.1769 33.8136 50.2459 34.1958 50.3833C34.5492 50.5099 34.8702 50.7234 35.2169 50.8728C36.5764 51.456 37.8178 52.2407 39.0303 53.0789C39.7244 53.5589 40.3808 54.076 40.9435 54.7102C41.1055 54.8926 41.1637 55.0791 41.1325 55.3131C41.0875 55.6461 41.0599 55.9815 41.0155 56.3139C40.9963 56.4596 41.0419 56.5868 41.1649 56.6312C41.4901 56.75 41.7799 56.9522 42.1201 57.0278C42.4992 57.1124 42.8802 57.1898 43.2618 57.2624C43.4364 57.2954 43.6146 57.3278 43.7915 57.3278C44.1293 57.3278 44.2373 57.2126 44.2307 56.8712C44.2283 56.7458 44.2529 56.6438 44.3861 56.6522C44.8913 56.6822 45.3946 56.7236 45.7426 57.1724C45.8578 57.3206 45.9574 57.5108 46.1434 57.5624C46.4188 57.638 46.5501 57.8348 46.6827 58.0543C46.8345 58.3063 47.0037 58.5481 47.1627 58.7953C47.2377 58.9123 47.3217 59.0251 47.4453 59.0869C47.5983 59.1649 47.6745 59.2651 47.7009 59.445C47.7441 59.7348 47.9115 59.8422 48.1958 59.784C48.3458 59.754 48.4838 59.7786 48.6302 59.7888C49.211 59.8284 49.7881 59.9976 50.3785 59.8224C50.5519 59.7708 50.6995 59.6736 50.871 59.6226C51.1836 59.529 51.2292 59.3664 51.0012 59.1211C50.7445 58.8439 50.4667 58.5859 50.1985 58.3195C49.9429 58.0657 49.6165 57.9493 49.283 57.8486C49.2038 57.8246 49.1174 57.833 49.0526 57.7646C48.662 57.3542 48.2762 56.9384 47.8017 56.621C47.7387 56.579 47.6925 56.516 47.6757 56.4435C47.6319 56.2533 47.4939 56.1441 47.3493 56.0355C46.9785 55.7571 46.6251 55.4601 46.321 55.1079C45.97 54.7006 45.613 54.3034 45.1012 54.0832C44.9495 54.0178 44.8175 53.9032 44.6795 53.8072C44.2397 53.5025 43.8137 53.1749 43.3578 52.8965C43.0482 52.7069 42.8502 52.4819 42.795 52.1172C42.7338 51.7122 42.5988 51.3174 42.4608 50.9394C42.2724 50.4229 41.8519 50.0665 41.3431 49.8409C40.4396 49.4407 39.4652 49.3111 38.5089 49.112C38.3853 49.0862 38.2545 49.0784 38.1561 48.9896C37.5784 48.4688 36.9856 47.9636 36.6256 47.2479C36.2873 46.5747 36.1493 45.8548 36.3203 45.1348C36.4864 44.4341 36.6658 43.7309 36.9178 43.0482C37.2748 42.0817 37.6348 41.1163 38.0391 40.169C38.3739 39.3866 38.7537 38.6235 39.1101 37.8507C39.3914 37.2406 39.6236 36.5962 40.0298 36.0623C40.2818 35.7317 40.3142 35.4065 40.307 35.0357C40.304 34.8588 40.2164 34.7136 40.1702 34.5534C40.0448 34.116 40.1948 33.7074 40.5998 33.5563C41.4361 33.2443 42.0601 33.2983 42.9 33.4915C43.2144 33.564 43.5096 33.5299 43.8305 33.645C44.1551 33.762 44.4545 33.9408 44.7599 34.0992C46.1326 34.8102 47.6601 35.1575 49.1714 35.4833C50.0959 35.6831 51.0288 35.8775 51.9744 35.8889C52.8533 35.8997 53.7304 35.7527 54.6088 35.7923C55.8189 35.8469 56.654 36.4031 57.5354 37.1776C58.5925 38.1063 59.6256 39.0591 60.6168 40.0592C61.2233 40.6718 61.7651 41.3419 62.3752 41.9509C62.8576 42.4326 63.3838 42.876 63.7863 43.434C64.1247 43.9025 64.5525 44.2967 64.8735 44.7821C65.1836 45.2506 65.2124 45.7336 65.0984 46.2586C65.0421 46.5183 64.9089 46.7085 64.7271 46.8957C64.2285 47.4099 63.568 47.6523 62.9554 47.9648C62.1149 48.3938 61.2431 48.7604 60.4068 49.2008C60.2226 49.2974 60.0324 49.3891 59.823 49.4347C58.7425 49.6711 57.7154 50.0749 56.6786 50.4481C56.6072 50.4733 56.5454 50.5111 56.498 50.5693C56.3085 50.8026 56.0463 50.916 55.7679 50.9796C55.1403 51.123 54.553 51.1218 54.0394 50.6143C53.782 50.3599 53.4059 50.2477 53.0441 50.1715C52.8203 50.1241 52.5809 50.1769 52.4135 50.3101C51.8742 50.7379 51.3354 51.1698 50.925 51.7356C50.6671 52.092 50.7013 52.2437 51.1092 52.4297C51.6396 52.6715 52.2018 52.8071 52.7699 52.9193C52.9463 52.9541 53.1275 52.9397 53.3021 52.8929C53.83 52.7525 54.3562 52.6073 54.8848 52.4687C55.0474 52.4267 55.2129 52.3811 55.3785 52.3709C56.3463 52.3121 57.317 52.3031 58.2697 52.4891C58.8589 52.6049 59.346 52.4639 59.8092 52.1298C60.9035 51.3408 62.0393 50.6233 63.2956 50.1133C63.5182 50.0227 63.7569 49.9519 63.9345 49.7785C64.1733 49.5451 64.4631 49.4575 64.7859 49.4143C65.1818 49.3609 65.5742 49.2716 65.9336 49.0874C66.2888 48.9044 66.6823 48.8264 67.0441 48.6566C67.2487 48.56 67.4605 48.4568 67.6843 48.3968C67.8793 48.344 67.968 48.4034 67.9219 48.5864C67.8517 48.8684 67.8163 49.1582 67.6225 49.4065C67.3195 49.7953 66.9877 50.1649 66.7381 50.5933C66.212 51.498 65.417 52.0698 64.4571 52.4303C64.2273 52.5167 63.9663 52.5287 63.7557 52.3817C63.2878 52.056 62.7676 52.0644 62.2384 52.098C62.0687 52.1088 61.9361 52.1748 61.8737 52.3481C61.6223 53.0453 61.3385 53.7298 61.4189 54.5032C61.4669 54.9664 61.4999 55.0246 61.9649 54.9994C62.0171 54.997 62.0693 54.9856 62.1209 54.9778C62.6476 54.8968 63.1774 54.8428 63.6729 54.6094C63.8745 54.5146 64.0791 54.4384 64.2345 54.2758C64.3449 54.16 64.4775 54.0772 64.6077 53.9872C65.2802 53.5229 66.0368 53.2361 66.7903 52.9403C67.3669 52.7141 67.9207 52.4285 68.5242 52.2713C68.67 52.2335 68.7852 52.1346 68.886 52.026C69.3276 51.552 69.5675 50.9754 69.7271 50.3587C69.8249 49.9801 69.9635 49.6261 70.2107 49.3093C70.4483 49.004 70.5623 48.6224 70.7183 48.2714C70.8094 48.0656 70.8598 47.8359 70.9606 47.6265C71.4058 46.6971 71.8948 45.7978 72.3885 44.8925C72.7059 44.3099 72.9075 43.6997 73.2945 43.155C73.3755 43.0404 73.4235 42.9162 73.4319 42.7752C73.4541 42.4038 73.4379 42.0511 73.2261 41.7133C73.0431 41.4217 72.9225 41.0905 72.7797 40.7743C72.6963 40.5896 72.6441 40.3934 72.6693 40.1912C72.7167 39.8084 72.5355 39.5468 72.2481 39.332C72.1048 39.2247 71.9512 39.1341 71.7898 39.0561C70.8598 38.6097 70.0595 37.9887 69.3312 37.2622C68.8998 36.832 68.4612 36.4079 68.0106 35.9957C67.3357 35.3789 66.6775 34.7436 66.0212 34.107C65.7602 33.8532 65.7686 33.693 66.035 33.4465C66.5293 32.9893 66.9553 32.4685 67.3969 31.9634C67.5439 31.7948 67.6105 31.5896 67.6501 31.3628C67.7335 30.8858 67.7251 30.3987 67.8085 29.9253C67.9362 29.1976 68.0664 28.5304 68.127 27.7955C68.1876 27.0533 68.3004 26.316 68.4636 25.59C68.6856 24.6007 69.108 23.7061 69.3941 22.7516C69.5771 22.142 69.7505 21.5445 70.0391 20.9679C70.5149 20.02 70.9144 19.0337 71.3446 18.0623C71.4016 17.9345 71.4682 17.8139 71.6002 17.7546C71.7478 17.688 71.809 17.5626 71.8744 17.4264C72.2037 16.746 72.4947 16.0477 72.8541 15.3811C73.0281 15.0577 73.2489 14.888 73.6269 14.9096C74.3822 14.9528 75.1381 14.9767 75.8935 15.0091C75.9355 15.0109 75.9775 15.0187 76.0189 15.0247C76.9428 15.1645 77.8686 15.2935 78.7907 15.4411C79.4212 15.5419 80.1442 15.4501 80.5984 16.0783C80.6098 16.0939 80.6338 16.1017 80.653 16.1095C81.0969 16.3015 81.4569 16.6506 81.9291 16.791C81.9765 16.8054 82.0263 16.8402 82.0563 16.8792C82.2044 17.0748 82.403 17.1312 82.6388 17.1312C82.8656 17.1312 83.0348 17.2428 83.1464 17.4474C83.228 17.5962 83.2904 17.7516 83.3282 17.9159C83.4512 18.4607 83.8915 18.8879 84.4525 18.9311C84.9001 18.9653 85.3524 18.9905 85.7988 18.8561C85.995 18.7967 86.109 18.7241 86.1408 18.5111C86.1726 18.2951 86.3544 18.2345 86.5289 18.3629C86.5619 18.3869 86.5871 18.4235 86.6123 18.4571C86.7485 18.6419 86.9051 18.6425 87.1097 18.5579C87.3887 18.4427 87.6005 18.2639 87.8093 18.0479C88.0684 17.7786 88.1956 17.493 88.1896 17.1192C88.1842 16.773 88.24 16.428 88.3816 16.1047C88.438 15.9769 88.462 15.8437 88.4482 15.7045ZM66.1082 38.8743C66.7711 39.2139 67.4221 39.5762 68.0742 39.9362C68.2506 40.0334 68.4246 40.1456 68.6244 40.1624C69.261 40.2146 69.5669 40.6796 69.8207 41.1601C69.9983 41.4967 70.1891 41.8195 70.4237 42.1135C70.6721 42.4242 70.7753 42.7416 70.6541 43.1358C70.4723 43.7261 70.4417 44.2583 70.0349 44.7599C69.4403 45.493 69.0666 46.3432 68.6262 47.1783C68.5902 47.2461 68.5434 47.3169 68.4636 47.3085C68.3388 47.2959 68.3814 47.1801 68.3736 47.1069C68.3508 46.9089 68.3406 46.7091 68.3256 46.5105C68.3244 46.1914 68.3784 45.8842 68.4564 45.5758C68.5908 45.0394 68.5506 44.5241 68.1468 44.1011C67.5859 43.5138 67.2685 42.7722 66.8503 42.0943C66.3374 41.2621 65.9324 40.3724 65.498 39.4988C65.3978 39.2972 65.2562 39.0417 65.435 38.8473C65.6282 38.6379 65.9012 38.7687 66.1082 38.8743ZM77.8476 14.726C77.841 14.744 77.7972 14.7548 77.769 14.7578C77.6178 14.7752 77.4792 14.7068 77.3418 14.6678C76.7976 14.5154 76.2403 14.519 75.6853 14.4878C75.1819 14.4602 74.6786 14.4386 74.1752 14.411C74.1086 14.4074 74.0072 14.4386 73.9976 14.3354C73.991 14.2694 74.0762 14.246 74.1326 14.2214C74.2784 14.1566 74.4326 14.1284 74.6246 14.1332C75.2707 14.2028 75.9481 14.279 76.629 14.3264C77.0232 14.354 77.4048 14.558 77.7924 14.681C77.82 14.69 77.8614 14.6864 77.8476 14.726Z" fill="black"/>
</g>
</svg>
