<svg width="51" height="64" viewBox="0 0 51 64" fill="none" xmlns="http://www.w3.org/2000/svg">
<mask id="mask0_1121_1880" style="mask-type:luminance" maskUnits="userSpaceOnUse" x="0" y="0" width="51" height="64">
<path d="M0 0H50.4649V64H0V0Z" fill="white"/>
</mask>
<g mask="url(#mask0_1121_1880)">
<path d="M25.2399 -0.00878906C25.3692 0.144567 25.5055 0.29503 25.6308 0.45591C26.441 1.49931 27.4918 2.13936 28.8001 2.36795C29.8005 2.53924 30.5892 3.02941 31.0589 3.95475C31.3709 4.56991 31.5356 5.22385 31.5681 5.91019C31.2776 5.99931 31.1842 5.77072 31.0555 5.64572C30.3845 5.00973 29.5639 4.86621 28.6853 4.86621C27.5666 4.86621 26.4305 5.02709 25.3188 4.42697C25.1396 5.60985 25.1506 6.59306 25.9463 7.54387C27.2372 9.08785 28.3878 10.7499 29.6138 12.3512C30.6965 13.7667 32.0234 14.964 33.2638 16.2331C33.9308 16.9125 34.662 17.5271 35.3684 18.1741C34.6151 19.2175 33.8194 19.9686 33.0916 20.7759C32.7332 21.1764 32.5325 21.5734 32.536 22.1347C32.554 27.1851 32.543 32.2395 32.5465 37.2898C32.5465 38.1978 32.561 38.1764 33.4181 38.2696C34.7769 38.416 36.1356 38.5983 37.4904 38.7661C37.6875 38.7916 37.8847 38.8807 38.1753 38.7308C38.1753 37.5543 38.1753 36.3321 38.1753 35.1098C38.1753 34.806 37.9601 34.6197 37.7844 34.4125C37.2537 33.7904 36.7162 33.1758 36.1965 32.5792C36.2145 32.4715 36.2035 32.3894 36.2395 32.35C38.7598 29.5404 40.6063 26.2412 42.8686 23.2424C43.1157 22.9171 43.1551 22.5705 43.1516 22.188C43.1406 20.6191 43.1337 19.0462 43.1406 17.4767C43.1406 17.148 43.0797 16.8083 43.2091 16.501C43.4706 16.4189 43.5356 16.6226 43.6249 16.7406C44.446 17.8199 45.5108 18.5028 46.8586 18.7389C48.411 19.0103 49.2287 19.9901 49.4903 21.4877C49.5367 21.7522 49.655 22.0132 49.5906 22.2956C49.336 22.3668 49.2467 22.1382 49.1174 22.0167C48.5722 21.4877 47.9059 21.2661 47.1636 21.2447C46.7872 21.2337 46.4108 21.2447 46.0339 21.2447C45.1878 21.2447 44.3277 21.3517 43.4886 20.7406C43.2949 21.8379 43.2485 22.699 43.8905 23.5676C45.2098 25.3512 46.4572 27.192 47.7122 29.0225C48.4075 30.0375 49.1284 31.0311 49.9705 31.9322C50.4872 32.4825 50.5446 32.5861 49.96 33.0757C48.5583 34.2482 48.3501 35.721 48.3646 37.4438C48.429 45.8402 48.3896 54.2366 48.3791 62.6324C48.3791 63.9767 48.4934 63.8517 47.174 63.8517C42.3125 63.8552 37.4509 63.8552 32.5894 63.8587C32.4177 63.8587 32.2455 63.8477 32.0767 63.8587C31.665 63.8911 31.5426 63.6764 31.5461 63.3049C31.5536 62.5896 31.5461 61.8714 31.5426 61.1527C31.5426 59.8234 31.5501 58.4901 31.5391 57.1602C31.5246 55.2048 30.9192 53.4715 29.5389 52.0485C27.1259 49.5647 23.3685 49.5109 20.8986 51.9345C19.5433 53.2603 18.8079 54.876 18.7795 56.7777C18.7505 58.7221 18.7546 60.67 18.7436 62.6151C18.7436 62.8541 18.7331 63.0936 18.7436 63.3298C18.7581 63.7302 18.5499 63.8766 18.1735 63.8517C18.0012 63.8407 17.8331 63.8517 17.6608 63.8517C12.7633 63.8517 7.86987 63.8552 2.97236 63.8587C2.80012 63.8587 2.62788 63.8477 2.4597 63.8587C2.11928 63.8766 1.95052 63.7262 1.95748 63.3795C1.96154 63.1399 1.95052 62.9009 1.95052 62.6648C1.95052 53.8251 1.93603 44.986 1.95748 36.1428C1.95748 35.2667 1.79278 34.563 1.14384 33.9443C0.706575 33.5259 0.0645928 33.1006 0.0286373 32.5323C-0.00673856 31.9536 0.692077 31.5635 1.07193 31.0919C2.47014 29.3622 3.59984 27.4426 4.90121 25.6446C5.46026 24.8691 5.97698 24.0612 6.55401 23.2997C6.86253 22.8923 6.96982 22.4779 6.96286 21.9773C6.9414 20.1723 6.95532 18.3633 6.95532 16.5653C7.19193 16.4403 7.2708 16.6301 7.36069 16.7516C8.19231 17.8772 9.30751 18.4958 10.6808 18.7921C12.4194 19.1677 13.3229 20.4721 13.2476 22.4779C12.2797 21.1909 10.9742 21.1839 9.65895 21.2516C8.83081 21.2945 8.02761 21.2088 7.21339 20.8153C7.03767 21.9131 7.04869 22.8245 7.73706 23.7464C9.22864 25.7447 10.6054 27.8251 12.0175 29.8801C12.5052 30.5879 13.0753 31.2204 13.6454 31.857C14.2085 32.486 14.2943 32.5896 13.6924 33.0688C11.731 34.6237 12.079 36.7036 12.2008 38.8164C13.3589 38.677 14.47 38.5375 15.5853 38.409C16.1298 38.3442 16.6749 38.2835 17.2201 38.2586C17.6394 38.2372 17.858 38.0763 17.8296 37.6365C17.8186 37.4652 17.8296 37.2973 17.8296 37.1255C17.8296 32.1752 17.8186 27.2279 17.84 22.2777C17.84 21.6446 17.6643 21.1729 17.234 20.7296C16.6639 20.1399 16.1408 19.5074 15.5957 18.8923C15.0796 18.306 15.0726 18.2956 15.5992 17.7487C16.8576 16.4478 18.1161 15.1394 19.3995 13.8633C20.644 12.6266 21.6043 11.1683 22.6766 9.79561C23.0136 9.36679 23.2827 8.87316 23.666 8.49121C24.8705 7.29329 25.2115 5.87431 25.0717 4.21575C24.9569 2.83265 25.0462 1.43508 25.0462 0.0444517C25.1112 0.026512 25.1756 0.00857212 25.2399 -0.00878906ZM25.0677 37.8905C25.0677 37.8905 25.0677 37.8975 25.0677 37.9015C25.9213 37.9015 26.7779 37.887 27.6316 37.9085C28.0543 37.9189 28.2764 37.7869 28.2625 37.3326C28.2231 36.1747 28.3594 35.0097 28.1796 33.8587C27.9291 32.232 26.5842 31.0526 25.1036 31.1133C23.4833 31.1776 22.1744 32.486 22.0996 34.1695C22.0526 35.192 22.1066 36.2175 22.0706 37.2366C22.0492 37.8049 22.3037 37.9229 22.8094 37.8975C23.5587 37.8656 24.3149 37.8905 25.0677 37.8905ZM24.9389 25.9947C25.5948 25.9947 26.14 25.9877 26.6851 25.9947C27.011 25.9982 27.2117 25.8807 27.2082 25.53C27.1937 24.4756 27.2476 23.4177 27.1473 22.3737C27.04 21.262 26.104 20.5329 25.0358 20.5653C23.9925 20.5977 23.0994 21.4229 22.9956 22.4918C22.9492 22.964 22.9631 23.4426 22.9811 23.9183C23.0066 24.5578 22.7161 25.3517 23.0994 25.7985C23.5442 26.3164 24.3868 25.8876 24.9389 25.9912V25.9947ZM44.9048 47.9814C44.8764 47.5022 44.9691 46.9588 44.8294 46.4229C44.6107 45.5861 44.0047 45.0931 43.2305 45.1289C42.4598 45.1608 41.8828 45.7076 41.7784 46.5728C41.7175 47.0769 41.7389 47.5879 41.7389 48.0954C41.7424 49.9114 41.5452 49.6787 43.2914 49.6787C45.1199 49.6787 44.8833 49.9218 44.9013 47.9814H44.9048ZM41.7998 37.3188C41.7998 37.3188 41.7749 37.3188 41.7644 37.3188C41.7644 37.7262 41.7644 38.137 41.7644 38.5445C41.7644 38.8627 41.8683 39.0664 42.2301 39.063C42.9475 39.056 43.6643 39.063 44.3811 39.063C44.6467 39.063 44.8764 38.9877 44.8798 38.6839C44.8868 37.7331 45.0196 36.7719 44.8079 35.835C44.6357 35.0705 43.9473 34.5803 43.2415 34.6307C42.4957 34.6845 41.9112 35.21 41.8143 35.9958C41.7604 36.4322 41.8039 36.8789 41.8039 37.3222L41.7998 37.3188ZM8.58666 47.8951C8.58666 47.4519 8.62958 47.0016 8.57622 46.5659C8.47184 45.7007 7.791 45.1075 6.98779 45.1249C6.17415 45.1428 5.55711 45.758 5.49969 46.6515C5.46432 47.1949 5.48578 47.7418 5.48926 48.2887C5.49622 49.8257 5.29904 49.6752 6.83005 49.6828C8.60116 49.6897 8.60116 49.6828 8.58318 47.8951H8.58666ZM8.59768 37.372H8.59014C8.59014 36.9646 8.61914 36.5537 8.58318 36.1463C8.50779 35.2881 7.84435 34.6307 7.0771 34.6127C6.24896 34.5948 5.55711 35.2528 5.51071 36.1747C5.47128 36.9542 5.51071 37.7406 5.49622 38.523C5.48926 38.909 5.63946 39.0774 6.03787 39.0664C6.68681 39.052 7.33575 39.0381 7.98469 39.0699C8.50779 39.0954 8.62958 38.8379 8.60464 38.3876C8.58666 38.0479 8.60116 37.7082 8.60116 37.3651L8.59768 37.372ZM34.1708 42.8911C34.357 42.2337 34.3036 41.5902 34.2532 40.9576C34.1993 40.2713 33.6941 39.8245 33.0556 39.7991C32.3922 39.7707 31.8726 40.1388 31.6969 40.7892C31.5716 41.2539 31.6395 41.7296 31.6325 42.2048C31.625 42.5445 31.8117 42.6909 32.1272 42.7157C32.7976 42.773 33.468 42.8303 34.1708 42.8911ZM16.0475 41.626C16.0585 42.898 15.9402 43.045 17.1377 42.8054C17.2056 42.791 17.2734 42.791 17.3419 42.784C18.2929 42.6984 18.7401 42.1752 18.6827 41.2146C18.6792 41.1469 18.6827 41.0792 18.6716 41.0109C18.5858 40.3176 18.134 39.8564 17.4926 39.8066C16.7718 39.7493 16.2481 40.1457 16.1118 40.8859C16.055 41.1862 16.0585 41.497 16.0475 41.626ZM22.5079 42.5161C22.8129 42.5161 23.1209 42.523 23.4259 42.5161C23.6086 42.512 23.7808 42.4333 23.7918 42.2372C23.8313 41.5971 23.9386 40.9432 23.6805 40.328C23.4764 39.8384 22.9776 39.5815 22.4365 39.6133C21.6832 39.6596 21.2494 40.1602 21.1781 41.0682C21.0969 42.0572 21.54 42.5398 22.5079 42.5161ZM27.8287 42.5265C29.173 42.5335 29.1086 42.7875 29.0976 41.1967C29.0976 41.1289 29.0976 41.0612 29.0907 40.9929C28.9973 40.089 28.5275 39.6168 27.7458 39.6423C26.9571 39.6637 26.4839 40.1498 26.4659 41.0537C26.434 42.8413 26.3835 42.4692 27.8287 42.53V42.5265Z" fill="black"/>
</g>
</svg>
