<svg width="65" height="49" viewBox="0 0 65 49" fill="none" xmlns="http://www.w3.org/2000/svg">
<path d="M59.9509 16.9607C59.8751 17.0121 59.7936 17.0585 59.7083 17.0992L50.9356 21.2401C50.3451 21.5191 49.6663 21.3348 49.4005 20.822C49.1347 20.3087 49.3729 19.6492 49.9433 19.3264L58.3813 14.541C59.1893 14.0835 60.1785 14.3079 60.5565 15.0356C60.895 15.6901 60.6185 16.5125 59.9509 16.9607ZM46.6142 16.7475C46.2913 16.2674 46.4543 15.5847 46.984 15.1992L54.8265 9.49181C55.578 8.94583 56.5854 9.05741 57.0442 9.73754C57.4893 10.4014 57.2367 11.3435 56.4926 11.8437C56.4732 11.8575 56.4531 11.8701 56.4337 11.8826L48.1869 16.9889C47.6303 17.3343 46.9364 17.2271 46.6142 16.7475ZM43.893 12.6273C43.5175 12.1872 43.604 11.4914 44.0861 11.0489L51.2328 4.49084C51.303 4.42627 51.3769 4.3686 51.454 4.31783C52.1204 3.86964 52.986 3.92417 53.4637 4.48457C53.9953 5.10954 53.831 6.10935 53.1014 6.68354L45.4827 12.6912C44.9699 13.0962 44.2679 13.068 43.893 12.6273ZM64.1759 13.7368L56.0344 1.62428C55.0076 0.0972802 52.9014 -0.237455 51.4534 0.894628L42.8819 7.59749C41.0728 9.0129 40.1664 11.2921 40.5106 13.5638L41.3725 19.2505L25.0927 30.1909L26.6272 31.1988L42.3165 20.654L47.2579 23.6008C49.2306 24.7781 51.6835 24.7994 53.6762 23.6585L63.1196 18.2532C64.7168 17.3405 65.202 15.2644 64.1759 13.7368ZM3.86644 47.5908C3.06095 48.1318 1.97086 47.9174 1.42989 47.1138C0.888299 46.3089 1.10268 45.2182 1.90755 44.6779C2.71117 44.1369 3.8025 44.3513 4.34284 45.1549C4.88318 45.9598 4.67006 47.0505 3.86644 47.5908ZM23.7493 33.1327L22.2155 32.1247L18.9791 34.3005C18.3441 33.9237 17.5235 33.9181 16.8703 34.3575L1.43491 43.7558C0.0784152 44.5814 -0.314617 46.3723 0.571743 47.6899C1.45747 49.0081 3.26342 49.3209 4.54093 48.3763L19.0731 37.6347C19.5257 37.33 19.8115 36.8718 19.9093 36.3753C19.9525 36.1559 19.9557 35.9296 19.9225 35.7046L23.7493 33.1327Z" fill="black"/>
</svg>
