<svg width="390" height="325" viewBox="0 0 390 325" fill="none" xmlns="http://www.w3.org/2000/svg">
<path d="M325.589 244.082C332.974 206.496 313.817 182.475 315.422 147.639C316.162 132.264 321.167 113.861 333.357 98.4514C346.067 82.3477 363.239 73.9132 379.179 66.4331C393.427 59.7397 408.546 52.8487 421.584 40.8581C431.807 31.5167 439.659 19.735 444.942 7.55351C458.246 -22.6018 457.526 -53.1149 455.287 -78.7779C455.05 -82.1119 454.67 -85.3731 454.292 -88.6299C442.006 -184.052 368.494 -231.54 268.211 -211.14C216.909 -200.654 146.069 -177.803 122.32 -108.246C112.665 -79.954 111.904 -53.2021 102.98 -25.0307C98.0804 -9.59494 90.7739 5.63162 79.4691 19.7231C67.6307 34.3813 53.4147 46.463 39.2637 57.8152C12.7294 79.1375 -13.6447 99.2593 -34.3509 128.476C-53.2651 155.19 -65.1787 185.832 -61.707 210.54C-58.3911 233.951 -42.6406 249.166 -17.9882 246.204C-3.32094 244.408 12.1252 237.752 27.22 233.23C43.4478 228.228 58.6135 226.852 72.4618 229.527C125.875 239.782 146.331 294.143 191.299 316.231C212.436 326.555 240.791 329.881 270.787 314.011C297.686 299.697 320.11 272.449 325.589 244.082Z" fill="#D9D9D9" fill-opacity="0.05"/>
</svg>
