<svg width="91" height="65" viewBox="0 0 91 65" fill="none" xmlns="http://www.w3.org/2000/svg">
<path d="M72.9869 10.3272C66.8792 8.84558 57.5867 8.2489 49.2125 10.7105C43.1703 12.486 38.6826 13.9683 32.7713 16.1403C24.5784 19.1501 17.4706 25.1634 13.4468 29.9909C9.42368 34.8184 13.8591 38.5564 13.7968 40.0802C13.7439 41.368 17.1508 45.9664 19.6502 44.3727C22.1489 42.7797 29.9522 35.6939 31.0958 33.834C32.2395 31.9729 29.7162 30.4913 27.9765 29.4868C26.2369 28.4822 26.4206 26.9188 26.4206 26.9188C26.1985 25.4422 29.2523 24.8632 33.4385 24.0167C37.0582 23.2853 50.0257 19.0016 53.3697 17.435C57.2361 15.6217 60.0332 14.2679 60.735 15.5858C60.735 15.5858 61.8144 16.7326 61.015 18.5755C60.217 20.4177 59.0733 23.1116 61.1 23.9248C63.1273 24.7379 73.6169 25.7821 76.5732 25.5732C79.5301 25.3648 79.5263 19.6429 78.7163 18.6397C77.7584 17.4533 79.0952 11.8094 72.9869 10.3272Z" fill="#345B55"/>
<path d="M55.6571 44.8131C55.0013 44.8131 54.4695 44.4096 54.4695 43.9124C54.4695 43.4152 55.0013 43.0123 55.6571 43.0123C56.313 43.0123 56.8448 43.4152 56.8448 43.9124C56.8448 44.4096 56.313 44.8131 55.6571 44.8131ZM53.059 47.493C52.3691 47.493 51.8102 47.0695 51.8102 46.5471C51.8102 46.024 52.3691 45.6004 53.059 45.6004C53.7475 45.6004 54.3064 46.024 54.3064 46.5471C54.3064 47.0695 53.7475 47.493 53.059 47.493ZM55.4173 39.9635C56.0398 39.9635 56.5446 40.3456 56.5446 40.8182C56.5446 41.2897 56.0398 41.6723 55.4173 41.6723C54.7955 41.6723 54.2907 41.2897 54.2907 40.8182C54.2907 40.3456 54.7955 39.9635 55.4173 39.9635ZM47.5794 43.4126C46.116 43.4126 44.9296 42.5982 44.9296 41.5937C44.9296 40.5891 46.116 39.7747 47.5794 39.7747C49.0421 39.7747 50.2279 40.5891 50.2279 41.5937C50.2279 42.5982 49.0421 43.4126 47.5794 43.4126ZM48.8464 48.5347C48.1345 48.5347 47.5574 48.0973 47.5574 47.5585C47.5574 47.0191 48.1345 46.581 48.8464 46.581C49.5576 46.581 50.1341 47.0191 50.1341 47.5585C50.1341 48.0973 49.5576 48.5347 48.8464 48.5347ZM44.4223 48.2364C43.7338 48.2364 43.1749 47.8128 43.1749 47.291C43.1749 46.7673 43.7338 46.3444 44.4223 46.3444C45.1122 46.3444 45.6711 46.7673 45.6711 47.291C45.6711 47.8128 45.1122 48.2364 44.4223 48.2364ZM42.7909 37.8204C42.7909 37.3893 43.2523 37.0393 43.8212 37.0393C44.3909 37.0393 44.8516 37.3893 44.8516 37.8204C44.8516 38.2522 44.3909 38.6015 43.8212 38.6015C43.2523 38.6015 42.7909 38.2522 42.7909 37.8204ZM40.943 46.3098C40.2872 46.3098 39.7547 45.907 39.7547 45.4097C39.7547 44.9125 40.2872 44.5097 40.943 44.5097C41.5988 44.5097 42.1307 44.9125 42.1307 45.4097C42.1307 45.907 41.5988 46.3098 40.943 46.3098ZM38.3713 42.3905C38.3713 41.9184 38.876 41.5358 39.4979 41.5358C40.1204 41.5358 40.6252 41.9184 40.6252 42.3905C40.6252 42.8625 40.1204 43.2446 39.4979 43.2446C38.876 43.2446 38.3713 42.8625 38.3713 42.3905ZM40.943 38.7809C41.5372 38.7809 42.0193 39.1466 42.0193 39.5972C42.0193 40.0479 41.5372 40.4129 40.943 40.4129C40.3482 40.4129 39.8667 40.0479 39.8667 39.5972C39.8667 39.1466 40.3482 38.7809 40.943 38.7809ZM47.5794 36.3759C48.1352 36.3759 48.5864 36.7183 48.5864 37.14C48.5864 37.5624 48.1352 37.9041 47.5794 37.9041C47.0224 37.9041 46.5711 37.5624 46.5711 37.14C46.5711 36.7183 47.0224 36.3759 47.5794 36.3759ZM54.7262 36.9021L51.6642 39.6281C51.6642 39.6281 51.0046 39.9465 50.5338 39.4908C50.0643 39.0364 50.2758 38.4888 50.2758 38.4888L52.1778 35.7893C50.7774 35.35 49.2209 35.1027 47.5794 35.1027C41.4925 35.1027 36.5586 38.4712 36.5586 42.6265C36.5586 46.7812 41.4925 50.1491 47.5794 50.1491C53.6657 50.1491 58.5996 46.7812 58.5996 42.6265C58.5996 40.3336 57.0953 38.2824 54.7262 36.9021Z" fill="#345B55"/>
<mask id="mask0_633_1949" style="mask-type:luminance" maskUnits="userSpaceOnUse" x="20" y="55" width="55" height="10">
<path d="M20.7334 55.3481H74.3886V65H20.7334V55.3481Z" fill="white"/>
</mask>
<g mask="url(#mask0_633_1949)">
<path d="M56.0596 61.9856H39.0998V58.4446H56.0596V61.9856ZM74.3318 55.5028H20.827C20.518 62.2594 21.3582 64.7474 26.9473 64.8645C33.0406 64.9923 45.4051 64.8872 47.5797 64.8677C49.7537 64.8872 62.1182 64.9923 68.2115 64.8645C73.8005 64.7474 74.6408 62.2594 74.3318 55.5028Z" fill="#345B55"/>
</g>
<path d="M47.5806 51.9999C40.4923 51.9999 34.7459 48.0541 34.7459 43.1864C34.7459 38.3192 40.4923 34.3722 47.5806 34.3722C54.6683 34.3722 60.4147 38.3192 60.4147 43.1864C60.4147 48.0541 54.6683 51.9999 47.5806 51.9999ZM74.0425 50.9783C73.2558 40.2244 61.8869 37.0982 61.8265 35.4768C61.768 33.8549 60.8396 25.8929 60.8396 25.8929L55.6237 26.3801C55.6237 26.3801 55.1303 28.2318 54.2347 29.0979C52.8632 30.4234 42.2962 30.4234 40.926 29.0979C40.0303 28.2318 39.5375 26.3801 39.5375 26.3801L34.3204 25.8929C34.3204 25.8929 33.3933 33.8549 33.3335 35.4768C33.2737 37.0982 21.9055 40.2244 21.1175 50.9783C21.0331 52.1345 20.9576 53.2014 20.8984 54.1914H74.2628C74.2037 53.2014 74.1275 52.1345 74.0425 50.9783Z" fill="#345B55"/>
<path d="M13.1495 47.1368C12.9878 47.1368 12.8235 47.106 12.6649 47.0399C12.4729 46.9599 7.95384 45.0019 6.41936 38.0665C5.09699 32.0859 8.18483 28.2265 8.317 28.0653C8.75758 27.5266 9.55189 27.4473 10.0907 27.8885C10.6282 28.3272 10.7087 29.1183 10.2719 29.6571C10.1649 29.7911 7.83425 32.7871 8.88157 37.5221C10.136 43.1936 13.6008 44.6985 13.6354 44.713C14.2787 44.9811 14.5821 45.7188 14.3139 46.3614C14.1119 46.8454 13.643 47.1368 13.1495 47.1368Z" fill="#345B55"/>
<path d="M10.5777 51.9707C10.4204 51.9707 10.2599 51.9411 10.1057 51.8782C9.80921 51.7586 2.83356 48.8275 0.853465 38.6412C-0.818223 30.0405 3.76507 24.9669 3.96082 24.7548C4.43413 24.2431 5.23158 24.2129 5.74265 24.6849C6.25247 25.157 6.28519 25.9519 5.81566 26.463C5.64698 26.6493 1.91212 30.8725 3.3289 38.1604C5.05031 47.0179 10.9919 49.5179 11.0516 49.5412C11.6968 49.803 12.0083 50.5375 11.7465 51.1827C11.5482 51.6736 11.0762 51.9707 10.5777 51.9707Z" fill="#345B55"/>
<path d="M83.5797 23.7692C83.4714 23.7692 83.3613 23.756 83.253 23.7264C82.5808 23.5464 82.1818 22.8566 82.3605 22.185C82.3719 22.1378 83.5872 17.4003 81.7211 13.42C79.6868 9.08281 75.8009 7.97695 75.7613 7.96562C75.0903 7.78246 74.6938 7.08886 74.8782 6.41792C75.0626 5.74572 75.755 5.3492 76.4272 5.53424C76.6317 5.59089 81.4806 6.97054 84.0039 12.35C86.2685 17.1775 84.858 22.6055 84.7963 22.834C84.6453 23.3973 84.1361 23.7692 83.5797 23.7692Z" fill="#345B55"/>
<path d="M88.5886 25.7701C88.4772 25.7701 88.3626 25.755 88.25 25.7229C87.5796 25.5372 87.1869 24.843 87.3726 24.1727C87.3921 24.1015 89.3011 16.9654 86.2352 10.5002C83.2286 4.15709 76.9189 2.49925 76.8553 2.48288C76.1806 2.31231 75.7715 1.6269 75.942 0.95218C76.1126 0.276833 76.7993 -0.131019 77.4734 0.0382896C77.7786 0.115706 85.0041 2.01587 88.5137 9.42014C91.9917 16.7539 89.8933 24.5201 89.8021 24.8468C89.6466 25.405 89.1399 25.7701 88.5886 25.7701Z" fill="#345B55"/>
</svg>
