<svg width="39" height="30" viewBox="0 0 39 30" fill="none" xmlns="http://www.w3.org/2000/svg">
<g clip-path="url(#clip0_1281_1527)">
<path d="M37.969 6.62404C37.969 3.10851 35.5446 0.280461 32.549 0.280461C28.4914 0.0781226 24.3532 0 20.1242 0H18.8059C14.5871 0 10.4416 0.0781228 6.38399 0.281242C3.39571 0.281242 0.971393 3.12492 0.971393 6.64044C0.788287 9.42084 0.71065 12.202 0.715045 14.9832C0.707721 17.7644 0.790729 20.5481 0.964068 23.3345C0.964068 26.8501 3.38839 29.7015 6.37667 29.7015C10.6394 29.9125 15.0119 30.0062 19.4577 29.9984C23.9108 30.014 28.2712 29.9151 32.5388 29.7015C35.5344 29.7015 37.9587 26.8501 37.9587 23.3345C38.1345 20.5455 38.215 17.7644 38.2077 14.9754C38.2243 12.1942 38.1447 9.41042 37.969 6.62404ZM15.8762 22.647V7.2959L26.4963 14.9676L15.8762 22.647Z" fill="white"/>
</g>
<defs>
<clipPath id="clip0_1281_1527">
<rect width="39" height="30" fill="white"/>
</clipPath>
</defs>
</svg>
