<svg width="30" height="30" viewBox="0 0 30 30" fill="none" xmlns="http://www.w3.org/2000/svg">
<path d="M28.3442 0H1.65583C1.21668 0 0.795511 0.174453 0.484982 0.484982C0.174453 0.795511 0 1.21668 0 1.65583V28.3446C0.000110489 28.7837 0.174613 29.2047 0.48513 29.5152C0.795647 29.8256 1.21675 30 1.65583 30H16.0238V18.3825H12.1142V13.855H16.0238V10.5158C16.0238 6.64083 18.3904 4.53125 21.8471 4.53125C23.5029 4.53125 24.9258 4.65417 25.3408 4.70958V8.75917L22.9433 8.76042C21.0633 8.76042 20.6996 9.65375 20.6996 10.9646V13.8554H25.1829L24.5992 18.3829H20.6996V30H28.3446C28.7837 29.9999 29.2047 29.8254 29.5152 29.5149C29.8256 29.2044 30 28.7832 30 28.3442V1.65583C30 1.21668 29.8255 0.795511 29.515 0.484982C29.2045 0.174453 28.7833 0 28.3442 0Z" fill="white"/>
</svg>
