<?xml version="1.0" encoding="utf-8"?>
<!-- Generator: Adobe Illustrator 23.1.0, SVG Export Plug-In . SVG Version: 6.00 Build 0)  -->
<svg version="1.1" id="Layer_1" xmlns="http://www.w3.org/2000/svg" xmlns:xlink="http://www.w3.org/1999/xlink" x="0px" y="0px"
	 viewBox="0 0 1080 1080" style="enable-background:new 0 0 1080 1080;" xml:space="preserve">
<style type="text/css">
	.st0{clip-path:url(#SVGID_2_);}
	.st1{fill:#015D42;}
</style>
<g>
	<defs>
		<rect id="SVGID_1_" x="329.3" y="108.4" width="418.7" height="902.3"/>
	</defs>
	<clipPath id="SVGID_2_">
		<use xlink:href="#SVGID_1_"  style="overflow:visible;"/>
	</clipPath>
	<g class="st0">
		<path class="st1" d="M503.6,112.3c-7.6,3.1-14.3,7.4-20.2,13.1c-29,27.5-36.3,71.7-49.2,107.7c-13.2,37.1-25.3,74.6-41.2,110.6
			c-27.7,62.9-31.6,80.5-60.1,143c-16.5,36.1,39.4,57.6,58.9,28.9C431,458.4,439.4,414.4,470,354c0.7,58.3,2.2,148.3,7.5,206.4
			c12.8,141.9,24.6,284.1,46.2,424.9c5.3,34.4,64.1,31.7,61.9-4.2C577,842,567.8,703,570.1,563.6c1.2-69.8,0.3-202.8,0.3-204.4
			c32.1,49.4,77.6,116.9,119.4,158.7c23.9,23.9,74-2.3,53.3-35.1c-30.5-48.3-69.8-128-97.3-178.1c-16.2-29.4-30.9-59.6-45-90
			c-12.1-25.9-17.4-56-34.1-79.6c-2.3-3.5-4.9-6.8-7.9-9.8c-3-3-6.3-5.6-9.8-7.9c-3.6-2.3-7.3-4.1-11.3-5.6c-4-1.5-8-2.5-12.2-3.1
			C517.8,108.3,510.6,109.5,503.6,112.3z"/>
	</g>
</g>
</svg>
