<svg width="50" height="68" viewBox="0 0 50 68" fill="none" xmlns="http://www.w3.org/2000/svg">
<path d="M20.683 30.47C27.58 30.47 33.1669 24.8856 33.1669 17.9917C33.1669 11.1057 27.58 5.51392 20.683 5.51392C13.7866 5.51392 8.1991 11.0984 8.1991 17.9917C8.1991 24.8856 13.7866 30.47 20.683 30.47Z" fill="black"/>
<mask id="mask0_1121_1888" style="mask-type:luminance" maskUnits="userSpaceOnUse" x="0" y="0" width="50" height="68">
<path d="M0 0H50V67.7045H0V0Z" fill="white"/>
</mask>
<g mask="url(#mask0_1121_1888)">
<path d="M45.2169 0.149684C42.1133 -0.155893 39.5085 2.26971 39.5085 5.30033V8.48067C39.7005 19.5999 37.2878 27.5603 32.5477 31.5015C31.9286 32.0138 31.3094 32.4974 30.6903 32.9453C27.829 34.8665 24.391 35.9974 20.6829 35.9974C16.3699 35.9974 12.4053 34.4677 9.30231 31.9279C4.12099 34.2897 0.0140991 38.6439 0.0140991 45.9354V63.0662C0.0140991 65.6274 2.0924 67.7044 4.65483 67.7044H36.7184C39.2808 67.7044 41.3591 65.6274 41.3591 63.0662V45.9354C41.3591 45.4237 41.3377 44.9328 41.3021 44.4486C41.0173 40.7921 41.9856 37.0786 43.9995 34.0124C48.0849 27.8235 50.0564 19.2299 49.8717 8.38801V5.58504C49.8717 2.88148 47.9143 0.412923 45.2169 0.149684ZM29.117 51.6837L21.6438 59.1532C21.1033 59.6938 20.235 59.6938 19.7012 59.1532L12.3845 51.8402C10.6265 50.0828 10.1779 47.2872 11.5659 45.2242C13.4374 42.4427 17.2455 42.1795 19.4876 44.4204L20.6688 45.601L21.6935 44.5769C23.4515 42.8195 26.249 42.3716 28.3058 43.7589C31.0885 45.6366 31.3591 49.4428 29.117 51.6837Z" fill="black"/>
</g>
</svg>
