<svg width="51" height="64" viewBox="0 0 51 64" fill="none" xmlns="http://www.w3.org/2000/svg">
<mask id="mask0_1121_1880" style="mask-type:luminance" maskUnits="userSpaceOnUse" x="0" y="0" width="51" height="64">
<path d="M0 0H50.4649V64H0V0Z" fill="white"/>
</mask>
<g mask="url(#mask0_1121_1880)">
<path d="M25.2397 -0.00878906C25.369 0.144567 25.5053 0.29503 25.6306 0.45591C26.4407 1.49931 27.4915 2.13936 28.7999 2.36795C29.8002 2.53924 30.589 3.02941 31.0587 3.95475C31.3707 4.56991 31.5354 5.22385 31.5679 5.91019C31.2773 5.99931 31.184 5.77072 31.0552 5.64572C30.3842 5.00973 29.5636 4.86621 28.685 4.86621C27.5664 4.86621 26.4303 5.02709 25.3186 4.42697C25.1394 5.60985 25.1504 6.59306 25.946 7.54387C27.237 9.08785 28.3875 10.7499 29.6135 12.3512C30.6962 13.7667 32.0231 14.964 33.2636 16.2331C33.9305 16.9125 34.6618 17.5271 35.3682 18.1741C34.6148 19.2175 33.8192 19.9686 33.0914 20.7759C32.733 21.1764 32.5323 21.5734 32.5358 22.1347C32.5538 27.1851 32.5427 32.2395 32.5462 37.2898C32.5462 38.1978 32.5607 38.1764 33.4179 38.2696C34.7766 38.416 36.1354 38.5983 37.4901 38.7661C37.6873 38.7916 37.8845 38.8807 38.175 38.7308C38.175 37.5543 38.175 36.3321 38.175 35.1098C38.175 34.806 37.9599 34.6197 37.7841 34.4125C37.2535 33.7904 36.7159 33.1758 36.1963 32.5792C36.2143 32.4715 36.2033 32.3894 36.2392 32.35C38.7596 29.5404 40.6061 26.2412 42.8684 23.2424C43.1154 22.9171 43.1549 22.5705 43.1514 22.188C43.1404 20.6191 43.1334 19.0462 43.1404 17.4767C43.1404 17.148 43.0795 16.8083 43.2088 16.501C43.4704 16.4189 43.5353 16.6226 43.6246 16.7406C44.4458 17.8199 45.5105 18.5028 46.8583 18.7389C48.4108 19.0103 49.2285 19.9901 49.49 21.4877C49.5364 21.7522 49.6547 22.0132 49.5904 22.2956C49.3358 22.3668 49.2465 22.1382 49.1171 22.0167C48.572 21.4877 47.9057 21.2661 47.1633 21.2447C46.787 21.2337 46.4106 21.2447 46.0336 21.2447C45.1875 21.2447 44.3275 21.3517 43.4883 20.7406C43.2946 21.8379 43.2482 22.699 43.8902 23.5676C45.2096 25.3512 46.457 27.192 47.712 29.0225C48.4073 30.0375 49.1282 31.0311 49.9702 31.9322C50.4869 32.4825 50.5443 32.5861 49.9598 33.0757C48.5581 34.2482 48.3499 35.721 48.3644 37.4438C48.4288 45.8402 48.3893 54.2366 48.3789 62.6324C48.3789 63.9767 48.4931 63.8517 47.1738 63.8517C42.3122 63.8552 37.4507 63.8552 32.5891 63.8587C32.4175 63.8587 32.2452 63.8477 32.0765 63.8587C31.6647 63.8911 31.5424 63.6764 31.5458 63.3049C31.5534 62.5896 31.5458 61.8714 31.5424 61.1527C31.5424 59.8234 31.5499 58.4901 31.5389 57.1602C31.5244 55.2048 30.9189 53.4715 29.5387 52.0485C27.1256 49.5647 23.3682 49.5109 20.8983 51.9345C19.543 53.2603 18.8077 54.876 18.7793 56.7777C18.7503 58.7221 18.7543 60.67 18.7433 62.6151C18.7433 62.8541 18.7329 63.0936 18.7433 63.3298C18.7578 63.7302 18.5496 63.8766 18.1732 63.8517C18.001 63.8407 17.8328 63.8517 17.6606 63.8517C12.7631 63.8517 7.86962 63.8552 2.97212 63.8587C2.79988 63.8587 2.62764 63.8477 2.45946 63.8587C2.11904 63.8766 1.95028 63.7262 1.95724 63.3795C1.9613 63.1399 1.95028 62.9009 1.95028 62.6648C1.95028 53.8251 1.93578 44.986 1.95724 36.1428C1.95724 35.2667 1.79254 34.563 1.1436 33.9443C0.706331 33.5259 0.0643487 33.1006 0.0283931 32.5323C-0.0069827 31.9536 0.691833 31.5635 1.07169 31.0919C2.4699 29.3622 3.5996 27.4426 4.90096 25.6446C5.46002 24.8691 5.97673 24.0612 6.55376 23.2997C6.86229 22.8923 6.96957 22.4779 6.96261 21.9773C6.94116 20.1723 6.95507 18.3633 6.95507 16.5653C7.19169 16.4403 7.27056 16.6301 7.36045 16.7516C8.19207 17.8772 9.30727 18.4958 10.6805 18.7921C12.4192 19.1677 13.3227 20.4721 13.2473 22.4779C12.2794 21.1909 10.974 21.1839 9.65871 21.2516C8.83057 21.2945 8.02736 21.2088 7.21314 20.8153C7.03742 21.9131 7.04844 22.8245 7.73682 23.7464C9.2284 25.7447 10.6052 27.8251 12.0173 29.8801C12.505 30.5879 13.0751 31.2204 13.6451 31.857C14.2083 32.486 14.2941 32.5896 13.6921 33.0688C11.7308 34.6237 12.0788 36.7036 12.2005 38.8164C13.3587 38.677 14.4698 38.5375 15.585 38.409C16.1296 38.3442 16.6747 38.2835 17.2198 38.2586C17.6391 38.2372 17.8578 38.0763 17.8293 37.6365C17.8183 37.4652 17.8293 37.2973 17.8293 37.1255C17.8293 32.1752 17.8183 27.2279 17.8398 22.2777C17.8398 21.6446 17.6641 21.1729 17.2337 20.7296C16.6637 20.1399 16.1406 19.5074 15.5954 18.8923C15.0793 18.306 15.0724 18.2956 15.5989 17.7487C16.8574 16.4478 18.1158 15.1394 19.3992 13.8633C20.6437 12.6266 21.6041 11.1683 22.6764 9.79561C23.0133 9.36679 23.2824 8.87316 23.6658 8.49121C24.8703 7.29329 25.2113 5.87431 25.0715 4.21575C24.9567 2.83265 25.046 1.43508 25.046 0.0444517C25.1109 0.026512 25.1753 0.00857212 25.2397 -0.00878906ZM25.0674 37.8905C25.0674 37.8905 25.0674 37.8975 25.0674 37.9015C25.9211 37.9015 26.7777 37.887 27.6313 37.9085C28.0541 37.9189 28.2762 37.7869 28.2623 37.3326C28.2228 36.1747 28.3591 35.0097 28.1793 33.8587C27.9288 32.232 26.584 31.0526 25.1034 31.1133C23.4831 31.1776 22.1742 32.486 22.0994 34.1695C22.0524 35.192 22.1063 36.2175 22.0704 37.2366C22.0489 37.8049 22.3035 37.9229 22.8092 37.8975C23.5585 37.8656 24.3147 37.8905 25.0674 37.8905ZM24.9387 25.9947C25.5946 25.9947 26.1397 25.9877 26.6849 25.9947C27.0108 25.9982 27.2114 25.8807 27.208 25.53C27.1935 24.4756 27.2474 23.4177 27.1471 22.3737C27.0398 21.262 26.1038 20.5329 25.0355 20.5653C23.9923 20.5977 23.0992 21.4229 22.9954 22.4918C22.949 22.964 22.9629 23.4426 22.9809 23.9183C23.0064 24.5578 22.7158 25.3517 23.0992 25.7985C23.544 26.3164 24.3866 25.8876 24.9387 25.9912V25.9947ZM44.9045 47.9814C44.8761 47.5022 44.9689 46.9588 44.8291 46.4229C44.6105 45.5861 44.0045 45.0931 43.2303 45.1289C42.4595 45.1608 41.8825 45.7076 41.7781 46.5728C41.7172 47.0769 41.7387 47.5879 41.7387 48.0954C41.7422 49.9114 41.545 49.6787 43.2912 49.6787C45.1197 49.6787 44.8831 49.9218 44.901 47.9814H44.9045ZM41.7996 37.3188C41.7996 37.3188 41.7746 37.3188 41.7642 37.3188C41.7642 37.7262 41.7642 38.137 41.7642 38.5445C41.7642 38.8627 41.868 39.0664 42.2299 39.063C42.9473 39.056 43.6641 39.063 44.3808 39.063C44.6465 39.063 44.8761 38.9877 44.8796 38.6839C44.8865 37.7331 45.0193 36.7719 44.8077 35.835C44.6354 35.0705 43.9471 34.5803 43.2413 34.6307C42.4955 34.6845 41.9109 35.21 41.8141 35.9958C41.7601 36.4322 41.8036 36.8789 41.8036 37.3222L41.7996 37.3188ZM8.58642 47.8951C8.58642 47.4519 8.62933 47.0016 8.57598 46.5659C8.47159 45.7007 7.79075 45.1075 6.98755 45.1249C6.17391 45.1428 5.55686 45.758 5.49945 46.6515C5.46408 47.1949 5.48553 47.7418 5.48901 48.2887C5.49597 49.8257 5.2988 49.6752 6.82981 49.6828C8.60091 49.6897 8.60091 49.6828 8.58294 47.8951H8.58642ZM8.59744 37.372H8.5899C8.5899 36.9646 8.61889 36.5537 8.58294 36.1463C8.50755 35.2881 7.84411 34.6307 7.07686 34.6127C6.24872 34.5948 5.55686 35.2528 5.51047 36.1747C5.47103 36.9542 5.51047 37.7406 5.49597 38.523C5.48901 38.909 5.63921 39.0774 6.03763 39.0664C6.68657 39.052 7.33551 39.0381 7.98445 39.0699C8.50755 39.0954 8.62933 38.8379 8.60439 38.3876C8.58642 38.0479 8.60091 37.7082 8.60091 37.3651L8.59744 37.372ZM34.1706 42.8911C34.3568 42.2337 34.3034 41.5902 34.2529 40.9576C34.199 40.2713 33.6939 39.8245 33.0554 39.7991C32.392 39.7707 31.8723 40.1388 31.6966 40.7892C31.5714 41.2539 31.6392 41.7296 31.6322 42.2048C31.6247 42.5445 31.8114 42.6909 32.1269 42.7157C32.7973 42.773 33.4677 42.8303 34.1706 42.8911ZM16.0472 41.626C16.0582 42.898 15.9399 43.045 17.1375 42.8054C17.2053 42.791 17.2732 42.791 17.3416 42.784C18.2927 42.6984 18.7398 42.1752 18.6824 41.2146C18.6789 41.1469 18.6824 41.0792 18.6714 41.0109C18.5856 40.3176 18.1338 39.8564 17.4924 39.8066C16.7715 39.7493 16.2479 40.1457 16.1116 40.8859C16.0548 41.1862 16.0582 41.497 16.0472 41.626ZM22.5076 42.5161C22.8127 42.5161 23.1206 42.523 23.4257 42.5161C23.6083 42.512 23.7806 42.4333 23.7916 42.2372C23.831 41.5971 23.9383 40.9432 23.6803 40.328C23.4761 39.8384 22.9774 39.5815 22.4363 39.6133C21.683 39.6596 21.2492 40.1602 21.1779 41.0682C21.0967 42.0572 21.5397 42.5398 22.5076 42.5161ZM27.8285 42.5265C29.1728 42.5335 29.1084 42.7875 29.0974 41.1967C29.0974 41.1289 29.0974 41.0612 29.0904 40.9929C28.997 40.089 28.5273 39.6168 27.7456 39.6423C26.9569 39.6637 26.4836 40.1498 26.4657 41.0537C26.4338 42.8413 26.3833 42.4692 27.8285 42.53V42.5265Z" fill="black"/>
</g>
</svg>
