<svg width="76" height="76" viewBox="0 0 76 76" fill="none" xmlns="http://www.w3.org/2000/svg">
<mask id="mask0_1122_1763" style="mask-type:luminance" maskUnits="userSpaceOnUse" x="0" y="0" width="76" height="76">
<path d="M0 0H75.9861V76H0V0Z" fill="white"/>
</mask>
<g mask="url(#mask0_1122_1763)">
<path fill-rule="evenodd" clip-rule="evenodd" d="M37.9589 34.2883C42.0161 34.2883 45.3021 37.5729 45.3021 41.6301C45.3021 45.686 42.6927 51.9659 37.9589 51.9659C33.223 51.9659 30.6143 45.6874 30.6143 41.6301C30.6143 37.5729 33.8988 34.2883 37.9589 34.2883ZM61.2753 34.6402C57.9538 34.6402 55.2637 37.329 55.2637 40.6512C55.2637 43.9712 57.3992 49.1119 61.2753 49.1119C65.1514 49.1119 67.2884 43.9712 67.2884 40.6512C67.2884 37.329 64.5989 34.6402 61.2753 34.6402ZM52.448 53.6465C55.4246 55.2351 57.5205 58.0862 58.1273 61.5464C58.4945 63.6457 58.9593 65.7255 59.3669 67.8193C59.4763 68.3823 59.957 68.7781 60.5298 68.7781H72.1957C73.3175 68.7781 74.2832 68.3307 75.0071 67.4765C75.7338 66.6209 76.0174 65.5959 75.8335 64.4895C75.4321 62.0578 74.8322 59.4679 74.4873 57.533C74.1313 55.4783 72.7872 53.8562 70.8091 53.1051L66.6188 51.414C64.0902 50.4044 63.1768 53.1831 61.2872 53.1692C59.3585 53.1546 58.4527 50.4093 55.9298 51.4161C54.7926 51.8746 53.6325 52.3226 52.4919 52.7895C52.3177 52.8605 52.2077 53.0159 52.1979 53.2033C52.1888 53.3915 52.2822 53.5573 52.448 53.6465ZM14.6397 34.6402C17.9611 34.6402 20.6513 37.329 20.6513 40.6512C20.6513 43.9712 18.5157 49.1119 14.6397 49.1119C10.7636 49.1119 8.6266 43.9712 8.6266 40.6512C8.6266 37.329 11.3161 34.6402 14.6397 34.6402ZM23.4669 53.6465C20.4904 55.2351 18.3945 58.0862 17.7876 61.5464C17.4204 63.6457 16.9557 65.7255 16.5481 67.8193C16.4387 68.3823 15.9579 68.7781 15.3852 68.7781H3.7193C2.59752 68.7781 1.6318 68.3307 0.907173 67.4765C0.181147 66.6209 -0.102435 65.5959 0.08151 64.4895C0.482845 62.0578 1.08276 59.4679 1.42765 57.533C1.7837 55.4783 3.12775 53.8562 5.10586 53.1051L9.29618 51.414C11.824 50.4044 12.7382 53.1831 14.6278 53.1692C16.5564 53.1546 17.4615 50.4093 19.9852 51.4161C21.1223 51.8746 22.2824 52.3226 23.423 52.7895C23.5972 52.8605 23.7073 53.0159 23.7171 53.2033C23.7261 53.3915 23.6328 53.5573 23.4669 53.6465ZM37.8153 6.20465C37.8439 6.2583 37.8969 6.28757 37.9561 6.28757C38.0181 6.28757 38.0711 6.2583 38.101 6.20465C40.424 2.11605 43.981 -1.04446 48.8486 0.595719C52.5937 1.85477 55.3034 5.55109 55.3034 9.91282C55.3034 16.1168 48.935 21.1502 44.8373 25.1447L39.0765 30.4485C38.4424 31.0324 37.4725 31.0324 36.8399 30.4485L31.0777 25.1447C26.98 21.1502 20.6109 16.1168 20.6109 9.91282C20.6109 5.43473 23.4676 1.65828 27.3702 0.498172C32.1256 -0.916255 35.5669 2.25192 37.8153 6.20465ZM49.6025 56.8432C52.0181 57.7615 53.6597 59.7417 54.0945 62.2522C54.5153 64.6149 55.2476 67.7803 55.7388 70.7492C55.9639 72.1016 55.6162 73.353 54.7313 74.3974C53.8443 75.4419 52.6647 75.9881 51.2949 75.9881H24.6201C23.2495 75.9881 22.0706 75.4419 21.1836 74.3974C20.2981 73.3537 19.9511 72.1016 20.1747 70.7506C20.6659 67.7803 21.3996 64.6149 21.8191 62.2522C22.2553 59.7417 23.8968 57.7615 26.3125 56.8432L31.4323 54.778C34.5197 53.5434 35.6366 56.9394 37.9442 56.9213C40.2993 56.9052 41.4065 53.5503 44.4889 54.7801L49.6025 56.8432Z" fill="black"/>
</g>
</svg>
