<svg width="117" height="115" viewBox="0 0 117 115" fill="none" xmlns="http://www.w3.org/2000/svg">
<path fill-rule="evenodd" clip-rule="evenodd" d="M32.0859 63.8964C32.6999 63.5113 33.3138 63.0829 33.8833 62.6545C40.8088 57.858 47.3834 53.3186 57.1587 58.8429C57.7283 58.8429 58.4299 58.8429 59.1749 58.8006C63.9532 58.6292 71.1417 58.3721 74.429 61.6272C75.174 62.3551 75.6569 63.2109 75.919 64.2392C72.5439 66.9801 63.9088 68.0507 59.7444 68.4358C59.438 68.4792 59.1749 68.7786 59.2192 69.078C59.2626 69.3784 59.5257 69.6354 59.8321 69.5921C64.3917 69.1213 74.3413 67.836 77.4976 63.9821C77.673 63.8107 77.8041 63.597 77.9361 63.3823C82.4069 60.2562 88.3243 56.3166 92.4887 57.5152C93.9786 57.9437 95.0744 58.9719 95.7316 60.6413C95.907 61.0274 95.776 61.5415 95.3819 61.7976C92.0058 64.0678 89.026 66.209 86.3959 68.1364C73.5087 77.5156 66.9774 82.2687 45.455 76.7011L41.2029 79.1427L32.0859 63.8964Z" fill="black"/>
<path fill-rule="evenodd" clip-rule="evenodd" d="M74.2103 60.1281C77.0158 58.372 80.916 55.9738 84.0723 56.7016C84.7295 56.873 85.3001 57.1301 85.782 57.5152C82.6257 58.8862 79.5138 61.0697 77.3222 62.5687L77.1468 62.6977L77.0158 62.9114C76.9281 63.0394 76.8404 63.2108 76.7083 63.3399C76.4019 62.4407 75.8757 61.6271 75.174 60.9416C74.8676 60.6412 74.5601 60.3852 74.2103 60.1281Z" fill="black"/>
<path fill-rule="evenodd" clip-rule="evenodd" d="M33.2694 87.0652C32.9186 87.0652 32.5678 86.8938 32.3924 86.5944L21.2149 67.8793C21.0838 67.6656 21.0405 67.4086 21.0838 67.1515C21.1715 66.8944 21.3469 66.6797 21.5657 66.5517L28.8419 62.3974C29.3248 62.1403 29.9377 62.2694 30.2008 62.7401L41.3783 81.4118C41.5538 81.6689 41.5538 81.926 41.5104 82.183C41.4227 82.3967 41.2906 82.6115 41.0275 82.7395L33.7513 86.9372C33.5758 87.0228 33.4448 87.0652 33.2694 87.0652Z" fill="black"/>
<path fill-rule="evenodd" clip-rule="evenodd" d="M65.4431 56.9154C65.18 56.9154 64.9613 56.8307 64.7415 56.6593C57.5973 49.6784 50.2333 42.4403 50.2333 35.0743C50.2333 30.7062 53.8715 27.1517 58.3423 27.1517C61.8494 27.1517 63.8655 28.7798 65.4431 31.306C67.0651 28.7798 69.0379 27.1517 72.5884 27.1517C77.0592 27.1517 80.6973 30.7062 80.6973 35.0743C80.6973 42.4403 73.29 49.6784 66.1448 56.6593C65.9694 56.8307 65.7062 56.9154 65.4431 56.9154Z" fill="black"/>
</svg>
