<svg width="923" height="767" viewBox="0 0 923 767" fill="none" xmlns="http://www.w3.org/2000/svg">
<path d="M861.33 525.536C864.118 462.24 821.107 409.897 813.862 348.623C810.724 321.596 814.694 291.296 833.027 269.908C852.129 247.542 881.862 241.065 909.564 235.674C934.323 230.843 960.658 226.093 981.587 211.22C998.016 199.666 1009.28 182.582 1015.6 163.507C1031.68 116.399 1021.35 61.67 1009.59 14.8267C1008.17 8.76752 1006.49 2.76766 1004.82 -3.22414C953.682 -179.374 801.79 -300.599 619.662 -314.189C526.505 -321.052 400.334 -315.612 376.258 -203.497C366.476 -157.892 372.923 -110.602 364.476 -64.8481C359.829 -39.7834 350.605 -16.29 333.545 3.1895C315.652 23.4134 292.539 37.862 269.334 51.0433C225.832 75.8232 182.277 98.5437 152.034 140.294C124.415 178.475 111.086 227.142 124.874 272.899C137.987 316.266 172.015 351.22 217.392 358.219C244.379 362.322 271.397 358.154 298.384 357.614C327.355 356.782 355.402 361.882 382.169 373.545C485.394 418.418 539.775 525.471 630.639 587.221C673.332 616.143 727.507 636.191 779.107 622.85C825.357 610.739 859.402 573.354 861.33 525.536Z" fill="#D9D9D9" fill-opacity="0.05"/>
</svg>
