<svg width="86" height="65" viewBox="0 0 86 65" fill="none" xmlns="http://www.w3.org/2000/svg">
<path d="M85.0609 54.6837V29.1222L63.3379 41.9027L85.0609 54.6837Z" fill="#345B55"/>
<mask id="mask0_633_1950" style="mask-type:luminance" maskUnits="userSpaceOnUse" x="0" y="0" width="86" height="51">
<path d="M0.984375 0H85.0928V50.8509H0.984375V0Z" fill="white"/>
</mask>
<g mask="url(#mask0_633_1950)">
<path d="M76.2976 18.5321L42.9832 0L9.66874 18.5321C8.93876 18.8971 8.39099 19.2627 7.75211 19.5366C4.46604 21.271 1.45444 22.8226 1.08887 26.0182L25.9151 40.7159L42.9832 50.7581L60.0512 40.7159L84.9686 26.0182C84.6036 22.9143 81.5003 21.271 78.306 19.5366C77.6665 19.2627 77.0276 18.9888 76.2976 18.5321ZM55.6702 35.9687C54.8485 36.7904 53.8447 37.5209 52.658 38.1598C51.4714 38.7076 50.1936 39.1643 48.8248 39.5292C47.3642 39.8031 45.9037 39.9859 44.1698 39.9859C41.7054 39.9859 39.4238 39.6203 37.4155 38.9815C35.4078 38.3426 33.6733 37.3381 32.3045 36.1515C30.935 34.8731 29.9312 33.4126 29.2012 31.6782C28.4706 29.9437 28.1056 28.0265 28.1056 26.0182C28.1056 23.8271 28.4706 21.8188 29.2012 19.9016C29.9312 17.9843 30.935 16.341 32.3045 14.9716C33.6733 13.6021 35.3161 12.5066 37.3244 11.6855C39.3321 10.8638 41.4315 10.4983 43.8049 10.4983C45.7215 10.4983 47.547 10.7722 49.0987 11.3199C50.7414 11.8677 52.1102 12.6894 53.2969 13.7849C54.4836 14.8805 55.3052 16.0671 55.9441 17.5277C56.583 18.9888 56.8569 20.5404 56.8569 22.3666C56.8569 23.736 56.583 25.1049 56.1263 26.3832C55.6702 27.6615 54.9396 28.8482 54.0269 29.9437C53.1147 30.9476 52.0191 31.7693 50.8325 32.4087C49.5547 33.0476 48.277 33.3215 46.8164 33.3215C45.9954 33.3215 45.3565 33.1387 44.8998 32.8648C44.4437 32.5909 44.1698 32.1348 43.9871 31.4954C43.0743 32.4087 42.0704 32.9559 40.8838 33.1387C39.6971 33.4126 38.6022 33.2298 37.5066 32.8648C36.5027 32.4998 35.6817 31.7693 35.0422 30.6737C34.4033 29.5782 34.0383 28.3004 34.0383 26.7482C34.0383 25.1049 34.4033 23.5532 35.0422 22.001C35.7728 20.4493 36.6855 19.171 37.9633 18.1671C39.241 17.1627 40.7016 16.706 42.2532 16.706C44.0787 16.706 45.4476 17.4366 46.2693 18.806L46.6342 17.0716H50.6503L48.3681 28.0265C48.1859 28.7565 48.1859 29.2132 48.1859 29.396C48.1859 29.6699 48.277 29.8521 48.3681 29.9437C48.4598 30.0348 48.642 30.1259 48.8248 30.1259C49.3725 30.1259 50.1025 29.761 50.9242 29.0304C51.8364 28.3004 52.5669 27.296 53.2058 26.1093C53.8447 24.831 54.2097 23.5532 54.2097 22.001C54.2097 20.8143 53.9358 19.6277 53.4797 18.5321C53.023 17.4366 52.3841 16.5238 51.4714 15.7021C50.5586 14.8805 49.5547 14.2416 48.1859 13.876C46.9081 13.4199 45.4476 13.2371 43.8049 13.2371C42.1615 13.2371 40.6099 13.4199 39.241 13.876C37.8722 14.3327 36.5938 14.9716 35.59 15.7021C34.495 16.5238 33.6733 17.5277 32.9434 18.7149C32.3045 19.7188 31.8478 20.9054 31.4828 22.1838C31.1178 23.4621 31.0267 24.7399 31.0267 26.0182C31.0267 27.7526 31.3917 29.396 32.1217 30.8565C32.8517 32.317 33.8561 33.5037 35.1339 34.5082C36.5027 35.5126 38.0544 36.1515 39.971 36.6076C41.8876 37.0642 43.9871 37.0642 46.3604 36.8815C48.277 36.6993 49.8286 36.2426 51.1975 35.6037C52.4758 34.9648 53.6619 34.0515 54.5747 32.9559H57.8607C57.2219 34.1432 56.583 35.147 55.6702 35.9687Z" fill="#345B55"/>
</g>
<path d="M44.7192 20.5406C44.4453 20.1756 44.1714 19.9928 43.8064 19.8106C43.4408 19.6278 43.0759 19.5367 42.6198 19.5367C41.707 19.5367 40.8853 19.9017 40.1554 20.6317C39.4254 21.3623 38.8776 22.275 38.5126 23.3706C38.147 24.4661 37.9648 25.6528 37.9648 26.84C37.9648 28.0267 38.2387 29.0306 38.6948 29.67C39.2426 30.3089 39.8815 30.6739 40.7031 30.6739C41.707 30.6739 42.5287 30.3089 43.2586 29.4872C43.9886 28.7567 44.5364 27.7528 44.9014 26.5661C45.2664 25.3789 45.4492 24.2834 45.4492 23.1884C45.4492 22.6406 45.3581 22.1839 45.2664 21.7273C45.1753 21.2712 44.9925 20.8145 44.7192 20.5406Z" fill="#345B55"/>
<mask id="mask1_633_1950" style="mask-type:luminance" maskUnits="userSpaceOnUse" x="0" y="43" width="86" height="22">
<path d="M0.984375 43.3279H85.0928V64.9997H0.984375V43.3279Z" fill="white"/>
</mask>
<g mask="url(#mask1_633_1950)">
<path d="M43.7134 53.4051C43.3485 53.679 42.8007 53.679 42.3446 53.4051L25.2765 43.3635L0.998047 57.6962C1.18083 59.6134 2.00191 61.3479 3.37135 62.6256C4.83131 64.0868 6.83962 64.9995 9.03014 64.9995H77.0279C79.2184 64.9995 81.2267 64.0868 82.6873 62.6256C83.965 61.3479 84.8778 59.6134 85.06 57.6962L60.6904 43.3635L43.7134 53.4051Z" fill="#345B55"/>
</g>
<path d="M0.908203 29.1222V54.6837L22.6312 41.9027L0.908203 29.1222Z" fill="#345B55"/>
</svg>
