<svg width="53" height="65" viewBox="0 0 53 65" fill="none" xmlns="http://www.w3.org/2000/svg">
<mask id="mask0_633_1923" style="mask-type:luminance" maskUnits="userSpaceOnUse" x="0" y="0" width="53" height="65">
<path d="M52.0391 0H0.960304V65H52.0391V0Z" fill="white"/>
</mask>
<g mask="url(#mask0_633_1923)">
<path fill-rule="evenodd" clip-rule="evenodd" d="M26.4776 0C40.5409 0 51.959 11.4281 51.959 25.5037C51.959 31.9445 48.1274 39.6029 43.3904 46.4148C36.582 56.2081 28.0718 64.2836 28.0718 64.2836C27.1775 65.1302 25.7784 65.1302 24.8841 64.2836C24.8841 64.2836 16.3732 56.2081 9.56547 46.4148C4.82844 39.6029 0.996868 31.9445 0.996868 25.5037C0.996868 11.4281 12.4144 0 26.4776 0ZM26.4776 12.7519C33.5104 12.7519 39.2183 18.4651 39.2183 25.5037C39.2183 32.543 33.5104 38.2556 26.4776 38.2556C19.4448 38.2556 13.7375 32.543 13.7375 25.5037C13.7375 18.4651 19.4448 12.7519 26.4776 12.7519ZM26.4776 17.3887C22.0022 17.3887 18.3703 21.0247 18.3703 25.5037C18.3703 29.9833 22.0022 33.6187 26.4776 33.6187C30.9531 33.6187 34.5856 29.9833 34.5856 25.5037C34.5856 21.0247 30.9531 17.3887 26.4776 17.3887Z" fill="#264A44"/>
</g>
</svg>
