<svg width="30" height="30" viewBox="0 0 30 30" fill="none" xmlns="http://www.w3.org/2000/svg">
<g clip-path="url(#clip0_1281_1529)">
<path d="M27.9222 0H2.88492C1.51684 0 0.321533 0.984375 0.321533 2.33638V27.4292C0.321533 28.7886 1.51684 30 2.88492 30H27.9148C29.2902 30 30.3215 28.7806 30.3215 27.4292V2.33638C30.3295 0.984375 29.2902 0 27.9222 0ZM9.62085 25.0065H5.32309V11.6438H9.62085V25.0065ZM7.62063 9.61205H7.58982C6.21438 9.61205 5.32376 8.58817 5.32376 7.30647C5.32376 6.00134 6.23782 5.00156 7.64407 5.00156C9.05031 5.00156 9.9108 5.99397 9.94161 7.30647C9.94094 8.58817 9.05031 9.61205 7.62063 9.61205ZM25.328 25.0065H21.0302V17.7C21.0302 15.9496 20.4048 14.7536 18.8499 14.7536C17.6619 14.7536 16.9588 15.5571 16.6461 16.34C16.5289 16.6212 16.4974 17.0042 16.4974 17.3953V25.0065H12.1996V11.6438H16.4974V13.5033C17.1228 12.6127 18.0999 11.331 20.3733 11.331C23.1945 11.331 25.3286 13.1906 25.3286 17.1998L25.328 25.0065Z" fill="white"/>
</g>
<defs>
<clipPath id="clip0_1281_1529">
<rect width="30" height="30" fill="white"/>
</clipPath>
</defs>
</svg>
