<svg width="1274" height="1792" viewBox="0 0 1274 1792" fill="none" xmlns="http://www.w3.org/2000/svg">
<mask id="mask0_694_2089" style="mask-type:luminance" maskUnits="userSpaceOnUse" x="480" y="511" width="800" height="758">
<path d="M480 511H1279.17V1268.3H480V511Z" fill="white"/>
</mask>
<g mask="url(#mask0_694_2089)">
<path d="M1219.85 741.178C1170.51 725.066 1119.76 747.499 1069.82 739.747C1047.8 736.282 1024.77 726.49 1011.92 707.323C998.473 687.335 999.898 662.45 1001.73 639.408C1003.36 618.81 1005.4 596.986 998.268 577.203C992.762 561.7 981.758 549.059 968.097 539.877C934.461 516.834 889.006 512.958 849.461 511.938C844.366 511.733 839.265 511.733 834.17 511.733C683.938 513.369 554.9 606.573 504.145 747.293C478.254 819.29 454.814 920.04 537.987 963.68C571.821 981.423 610.552 986.73 644.797 1003.45C663.553 1012.63 680.063 1025.07 691.683 1042.81C703.708 1061.38 710.028 1082.79 715.328 1104C725.319 1143.77 733.673 1183.13 759.968 1216.17C784.024 1246.35 819.495 1267.57 858.63 1266.75C895.731 1265.93 930.791 1246.76 946.287 1212.5C955.456 1192.11 958.106 1169.87 963.612 1148.46C969.323 1125.42 979.512 1104.41 994.598 1085.85C1052.69 1014.26 1149.12 994.885 1217.81 936.762C1250.02 909.433 1277.74 871.093 1278.56 827.446C1279.17 788.29 1257.15 753.21 1219.85 741.178Z" fill="#345B55" fill-opacity="0.05"/>
</g>
<mask id="mask1_694_2089" style="mask-type:luminance" maskUnits="userSpaceOnUse" x="215" y="1008" width="782" height="781">
<path d="M252.469 1789L215.043 1068.46L959.283 1009L996.709 1729.54L252.469 1789Z" fill="white"/>
</mask>
<g mask="url(#mask1_694_2089)">
<path d="M444.034 1103.86C430.509 1149.61 454.933 1193.61 449.653 1239.24C447.279 1259.37 438.734 1280.9 420.499 1293.99C401.485 1307.69 376.962 1308.36 354.231 1308.51C333.911 1308.66 312.368 1308.53 293.26 1316.52C278.281 1322.7 266.373 1333.62 257.989 1346.66C236.918 1378.79 235.238 1420.08 236.087 1455.82C236.124 1460.43 236.363 1465.03 236.601 1469.62C245.245 1604.95 342.888 1713.97 483.561 1748.69C555.531 1766.38 655.644 1779.6 694.638 1701.18C710.49 1669.28 713.892 1633.94 728.722 1601.75C736.861 1584.12 748.316 1568.26 765.209 1556.39C782.89 1544.09 803.638 1536.71 824.232 1530.27C862.851 1518.13 901.142 1507.51 932.382 1481.21C960.92 1457.15 980.108 1423.5 977.467 1388.28C974.929 1354.89 954.45 1324.79 920.049 1313.5C899.578 1306.84 877.603 1306.19 856.301 1302.91C833.388 1299.57 812.263 1292.03 793.319 1279.89C720.245 1233.13 696.684 1147.71 636.345 1090.34C607.978 1063.45 569 1041.46 526.066 1044.15C487.556 1046.68 454.111 1069.28 444.034 1103.86Z" fill="#345B55" fill-opacity="0.05"/>
</g>
<mask id="mask2_694_2089" style="mask-type:luminance" maskUnits="userSpaceOnUse" x="5" y="3" width="849" height="810">
<path d="M46.1191 3L853.854 71.4576L812.735 812.934L5.00007 744.476L46.1191 3Z" fill="white"/>
</mask>
<g mask="url(#mask2_694_2089)">
<path d="M781.398 291.746C732.415 271.745 679.899 289.361 629.845 277.494C607.783 272.215 585.033 260.655 573.09 240.789C560.582 220.067 563.373 195.825 566.479 173.423C569.244 153.395 572.492 132.203 566.354 112.223C561.631 96.573 551.196 83.2542 537.887 73.0935C505.143 47.6521 459.412 39.9639 419.499 35.5776C414.361 34.9401 409.205 34.5031 404.056 34.0667C252.129 22.8006 116.65 103.001 57.7119 236.428C27.6348 304.699 -1.52578 401.333 80.1663 451.184C113.399 471.453 152.256 479.967 185.959 499.272C204.418 509.863 220.429 523.459 231.21 541.825C242.355 561.03 247.581 582.536 251.786 603.754C259.724 643.549 266.031 682.801 290.813 717.402C313.487 749.015 348.186 772.824 387.784 775.371C425.325 777.751 461.801 761.989 479.324 729.768C489.698 710.588 493.584 689.046 500.311 668.553C507.334 646.482 518.773 626.785 535.027 609.909C597.631 544.798 696.137 534.084 768.724 483.061C802.756 459.063 832.861 423.9 836.054 381.236C838.796 342.953 818.45 306.721 781.398 291.746Z" fill="#345B55" fill-opacity="0.05"/>
</g>
</svg>
