<?xml version="1.0" encoding="utf-8"?>
<!-- Generator: Adobe Illustrator 23.1.0, SVG Export Plug-In . SVG Version: 6.00 Build 0)  -->
<svg version="1.1" id="Layer_1" xmlns="http://www.w3.org/2000/svg" xmlns:xlink="http://www.w3.org/1999/xlink" x="0px" y="0px"
	 viewBox="0 0 32 32" style="enable-background:new 0 0 32 32;" xml:space="preserve">
<style type="text/css">
	.st0{stroke:#000000;stroke-miterlimit:10;}
	.st1{fill:none;stroke:#000000;stroke-miterlimit:10;}
</style>
<path class="st0" d="M26.2,9.2v2.7H5.7V9.2c0-0.8,0.7-1.5,1.5-1.5h17.7C25.6,7.7,26.2,8.4,26.2,9.2z"/>
<path class="st1" d="M5.7,11.9v10.9c0,0.8,0.7,1.5,1.5,1.5h17.5c0.8,0,1.5-0.7,1.5-1.5V11.9H5.7z M11,20.3V16h5.6v4.3H11z"/>
<polyline class="st1" points="26.2,16 21.4,16 16.5,16 "/>
<line class="st1" x1="11" y1="16" x2="5.7" y2="16"/>
<rect x="11" y="16" width="5.6" height="4.3"/>
<line class="st1" x1="11" y1="24.3" x2="11" y2="20.3"/>
<line class="st1" x1="11" y1="16" x2="11" y2="11.9"/>
<line class="st1" x1="16.5" y1="16" x2="16.5" y2="11.9"/>
<line class="st1" x1="16.5" y1="24.3" x2="16.5" y2="20.3"/>
<line class="st1" x1="21.4" y1="24.3" x2="21.4" y2="11.9"/>
<polyline class="st1" points="26.2,20.3 21.4,20.3 16.5,20.3 "/>
<line class="st1" x1="11" y1="20.3" x2="5.7" y2="20.3"/>
</svg>
