<?xml version="1.0" encoding="utf-8"?>
<!-- Generator: Adobe Illustrator 23.1.0, SVG Export Plug-In . SVG Version: 6.00 Build 0)  -->
<svg version="1.1" id="Layer_1" xmlns="http://www.w3.org/2000/svg" xmlns:xlink="http://www.w3.org/1999/xlink" x="0px" y="0px"
	 viewBox="0 0 32 32" style="enable-background:new 0 0 32 32;" xml:space="preserve">
<g>
	<path d="M18,9.8c0,0.7-0.4,1.3-0.9,1.7c-0.3,0.2-0.7,0.3-1.1,0.3s-0.8-0.1-1.1-0.3c-0.5-0.4-0.9-1-0.9-1.7c0-1.1,0.9-2,2-2
		S18,8.7,18,9.8z"/>
	<path d="M22.4,17.8V19h-1.5v-1.2c0-0.6-0.1-1.1-0.3-1.6c-0.2-0.6-0.6-1.2-1-1.7v9.4c-0.3,0.2-0.7,0.4-1.2,0.4h-4.7
		c-0.4,0-0.8-0.1-1.2-0.4v-9.4c-0.5,0.5-0.8,1.1-1,1.7c-0.2,0.5-0.3,1.1-0.3,1.6V19H9.6v-1.2c0-0.8,0.1-1.5,0.4-2.1
		c0.4-1.2,1.2-2.3,2.3-3c0.5-0.3,1-0.6,1.5-0.8c0.5,0.6,1.3,1,2.2,1s1.7-0.4,2.2-1c0.5,0.2,1,0.5,1.5,0.8c1,0.7,1.8,1.8,2.3,3
		C22.2,16.3,22.4,17,22.4,17.8z"/>
</g>
</svg>
