<?xml version="1.0" encoding="utf-8"?>
<!-- Generator: Adobe Illustrator 23.1.0, SVG Export Plug-In . SVG Version: 6.00 Build 0)  -->
<svg version="1.1" id="Layer_1" xmlns="http://www.w3.org/2000/svg" xmlns:xlink="http://www.w3.org/1999/xlink" x="0px" y="0px"
	 viewBox="0 0 32 32" style="enable-background:new 0 0 32 32;" xml:space="preserve">
<style type="text/css">
	.st0{fill:none;stroke:#000000;stroke-miterlimit:10;}
</style>
<g>
	<path class="st0" d="M19.3,26.2h-6.6c-1.7,0-3.2-1.4-3.2-3.2V9c0-1.7,1.4-3.2,3.2-3.2h6.6c1.7,0,3.2,1.4,3.2,3.2v14.2
		C22.5,24.8,21.1,26.2,19.3,26.2z"/>
	<path d="M16.9,7.6h-2c-0.2,0-0.4-0.2-0.4-0.4l0,0c0-0.2,0.2-0.4,0.4-0.4h2c0.2,0,0.4,0.2,0.4,0.4l0,0C17.4,7.4,17.2,7.6,16.9,7.6z"
		/>
</g>
</svg>
